<svg width="14px" height="14px" version="1.1" xmlns="http://www.w3.org/2000/svg" xmlns:xlink="http://www.w3.org/1999/xlink" x="0px" y="0px" viewBox="0 0 1000 1000" enable-background="new 0 0 1000 1000" xml:space="preserve">
<metadata> Svg Vector Icons : http://www.onlinewebfonts.com/icon </metadata>
<g><path d="M500,10C229.4,10,10,229.4,10,500s219.4,490,490,490s490-219.4,490-490S770.6,10,500,10z M500,920C268,920,80,732,80,500S268,80,500,80s420,188,420,420S732,920,500,920z M500,220c-81.7,0-150.5,56.2-169.6,132c-5.5,21.8,10.8,43,33.2,43h1.3c15.9,0,29.4-10.8,33.4-26.3C410,323.5,451.1,290,500,290c57.9,0,105,47.1,105,105c0,37.4-20.1,72.2-52.5,91l0,0l0,0c-26,15.1-48,37.4-63.5,64.4c-8.3,14.4-14.4,29.9-18.5,45.9c-5.6,22.2,11,43.6,33.9,43.6l0,0c16,0,30.1-10.8,33.9-26.5c7-28,24.8-52.8,49.2-66.9l0,0l0,0C641.4,515.4,675,457.3,675,395C675,298.5,596.5,220,500,220z M500,710L500,710c19.4,0,35,15.6,35,35l0,0c0,19.4-15.6,35-35,35l0,0c-19.4,0-35-15.6-35-35l0,0C465,725.6,480.6,710,500,710z"/></g>
</svg>