<?xml version="1.0" encoding="utf-8"?>
<!-- Generator: Adobe Illustrator 24.2.1, SVG Export Plug-In . SVG Version: 6.00 Build 0)  -->
<svg version="1.1" id="Layer_1" xmlns="http://www.w3.org/2000/svg" xmlns:xlink="http://www.w3.org/1999/xlink" x="0px" y="0px"
	 viewBox="0 0 494 214" style="enable-background:new 0 0 494 214;" xml:space="preserve">
<style type="text/css">
	.st0{fill:#FFFFFF;}
	.st1{fill-rule:evenodd;clip-rule:evenodd;fill:#FFFFFF;}
</style>
<polygon class="st0" points="235.2,66.2 235.2,78.4 249.9,78.4 249.9,82.7 235.2,82.7 235.2,98.7 230.6,98.7 230.6,61.8 251.3,61.8 
	251.3,66.2 "/>
<path class="st0" d="M256.6,86.7V70.2h4.5V86c0,5.6,3.1,9,8.1,9c5.1,0,8.1-3.5,8.1-9V70.2h4.5v16.5c0,7.6-4.9,12.6-12.6,12.6
	C261.6,99.3,256.6,94.3,256.6,86.7"/>
<rect x="290.5" y="60.1" class="st0" width="4.5" height="38.7"/>
<rect x="304" y="60.1" class="st0" width="4.5" height="38.7"/>
<path class="st0" d="M332.5,69.6c8.6,0,14.7,6.3,14.7,14.9c0,8.5-6.1,14.9-14.7,14.9c-4.5,0-8.3-1.8-11-4.7l-0.6,4.1h-3.5V60.1h4.5
	v13.8C324.6,71.2,328.3,69.6,332.5,69.6L332.5,69.6z M342.6,84.5c0-6.1-4.4-10.5-10.4-10.5s-10.5,4.5-10.5,10.5S326.2,95,332.2,95
	S342.6,90.5,342.6,84.5"/>
<path class="st0" d="M369.5,70.1v4.2h-2.9c-5.2,0-8.2,3.4-8.2,8.9v15.5H354V70.2h3.2l0.7,4.3c2-2.9,5-4.5,9.1-4.5L369.5,70.1
	L369.5,70.1z"/>
<path class="st0" d="M371.2,84.5c0-8.6,6.5-14.9,15.1-14.9s15.1,6.3,15.1,14.9c0,8.5-6.5,14.9-15.1,14.9
	C377.7,99.3,371.2,93,371.2,84.5 M386.3,95c6.1,0,10.5-4.4,10.5-10.5S392.4,74,386.3,74s-10.5,4.4-10.5,10.5S380.2,95,386.3,95
	L386.3,95z"/>
<path class="st0" d="M406,84.5c0-8.6,6.5-14.9,15.1-14.9s15.1,6.3,15.1,14.9c0,8.5-6.5,14.9-15.1,14.9C412.4,99.3,406,93,406,84.5
	 M421.1,95c6.1,0,10.5-4.4,10.5-10.5S427.2,74,421.1,74s-10.5,4.4-10.5,10.5C410.5,90.6,415,95,421.1,95L421.1,95z"/>
<polygon class="st0" points="452,85.9 448,85.9 448,98.7 443.5,98.7 443.5,60.1 448,60.1 448,81.8 452.1,81.8 460.9,70.2 
	466.3,70.2 456,83.9 467.4,98.7 461.8,98.7 "/>
<path class="st0" d="M253.1,151.3c-1.1-1.2-2.1-2.3-3.1-3.3c-2.8,2.5-6.6,3.9-11,3.9c-6.7,0-11.2-3.9-11.2-9.8
	c0-5.3,3.5-8.4,7.4-10.8c-3.2-4.3-4.2-6.8-4.2-9.5c0-4.9,3.8-7.9,9.3-7.9s9.2,3.1,9.2,7.7c0,5.3-4.3,8.1-8.6,10.7
	c2.2,2.7,5.1,6,8.6,9.9c1.2-2,1.9-4.5,1.9-7.2h3.8c0,4-1.1,7.5-2.9,10.3c1.7,1.9,3.6,3.9,5.7,6.1L253.1,151.3z M239.4,147.8
	c3,0,5.7-1,7.8-2.8c-4.1-4.5-7.2-8-9.6-10.8c-3.1,2-5.6,4.2-5.6,7.7C232.1,145.4,235.1,147.8,239.4,147.8z M235.2,121.7
	c0,1.8,1.1,4.1,3.6,7.5c3.7-2.1,6.9-4.2,6.9-7.7c0-2.5-2.1-4.2-5.2-4.2C237.3,117.3,235.2,119,235.2,121.7"/>
<polygon class="st0" points="280.9,118.7 280.9,130.9 295.6,130.9 295.6,135.2 280.9,135.2 280.9,151.3 276.3,151.3 276.3,114.3 
	297,114.3 297,118.7 "/>
<rect x="303.3" y="112.6" class="st0" width="4.5" height="38.7"/>
<path class="st0" d="M314.6,137c0-8.6,6.5-14.9,15.1-14.9s15.1,6.3,15.1,14.9c0,8.5-6.5,14.9-15.1,14.9S314.6,145.5,314.6,137
	 M329.7,147.5c6.1,0,10.5-4.4,10.5-10.5s-4.4-10.5-10.5-10.5s-10.5,4.4-10.5,10.5S323.6,147.5,329.7,147.5L329.7,147.5z"/>
<path class="st0" d="M349.4,137c0-8.6,6.5-14.9,15.1-14.9s15.1,6.3,15.1,14.9c0,8.5-6.5,14.9-15.1,14.9
	C355.8,151.9,349.4,145.5,349.4,137 M364.5,147.5c6.1,0,10.5-4.4,10.5-10.5s-4.4-10.5-10.5-10.5S354,130.9,354,137
	C353.9,143.1,358.4,147.5,364.5,147.5L364.5,147.5z"/>
<path class="st0" d="M401.9,122.6v4.2H399c-5.2,0-8.2,3.4-8.2,8.9v15.5h-4.5v-28.5h3.2l0.7,4.3c2-2.9,5-4.5,9.1-4.5L401.9,122.6
	L401.9,122.6z"/>
<path class="st0" d="M239.2,170.5h-10.7c0.3,2.3,2,3.8,4.4,3.8c1.7,0,3.1-0.8,3.9-2.2h2.1c-1.1,2.6-3.3,4.1-6,4.1
	c-3.6,0-6.4-2.8-6.4-6.5s2.8-6.5,6.4-6.5c3.8,0,6.3,2.9,6.3,6.6C239.2,170,239.2,170.2,239.2,170.5 M228.5,168.6h8.7
	c-0.4-2.2-2.1-3.6-4.3-3.6C230.6,165,228.9,166.5,228.5,168.6"/>
<path class="st0" d="M241.1,172.1h1.9c0.1,1.5,1.4,2.3,3.1,2.3c1.7,0,2.9-0.7,2.9-2c0-1.5-1.5-1.8-3.2-2c-2.1-0.4-4.5-0.8-4.5-3.6
	c0-2.2,1.9-3.6,4.7-3.6s4.6,1.5,4.7,3.9h-1.9c-0.1-1.4-1.1-2.1-2.9-2.1c-1.7,0-2.8,0.7-2.8,1.8c0,1.3,1.4,1.6,3.1,1.8
	c2.2,0.4,4.7,0.8,4.7,3.8c0,2.3-2,3.9-5,3.9C243.1,176.2,241.2,174.6,241.1,172.1"/>
<path class="st0" d="M260.5,174.1v1.8h-1.6c-2.7,0-4.3-1.7-4.3-4.4v-6.4h-2.2v-0.4l3.9-4.1h0.3v2.7h3.9v1.8h-3.9v6.3
	c0,1.7,0.9,2.6,2.6,2.6L260.5,174.1L260.5,174.1z"/>
<path class="st0" d="M275.2,163.4v12.5h-1.6l-0.2-1.9c-1.2,1.3-2.9,2.2-4.9,2.2c-3.7,0-6.5-2.8-6.5-6.5s2.8-6.5,6.5-6.5
	c2,0,3.8,0.8,4.9,2.2l0.2-1.9h1.6V163.4z M273.2,169.7c0-2.7-1.9-4.6-4.6-4.6c-2.6,0-4.6,2-4.6,4.6s2,4.6,4.6,4.6
	S273.2,172.4,273.2,169.7"/>
<path class="st0" d="M285.7,174.1v1.8h-1.6c-2.7,0-4.3-1.7-4.3-4.4v-6.4h-2.2v-0.4l3.9-4.1h0.3v2.7h3.9v1.8h-3.9v6.3
	c0,1.7,0.9,2.6,2.6,2.6L285.7,174.1L285.7,174.1z"/>
<path class="st0" d="M299.8,170.5h-10.7c0.3,2.3,2,3.8,4.4,3.8c1.7,0,3.1-0.8,3.9-2.2h2.1c-1.1,2.6-3.3,4.1-6,4.1
	c-3.6,0-6.4-2.8-6.4-6.5s2.8-6.5,6.4-6.5c3.8,0,6.3,2.9,6.3,6.6C299.9,170,299.9,170.2,299.8,170.5 M289.2,168.6h8.7
	c-0.4-2.2-2.1-3.6-4.3-3.6C291.3,165,289.6,166.5,289.2,168.6"/>
<path class="st0" d="M321.1,163.4v12.5h-1.6l-0.2-1.9c-1.2,1.3-2.9,2.2-4.9,2.2c-3.7,0-6.5-2.8-6.5-6.5s2.8-6.5,6.5-6.5
	c2,0,3.8,0.8,4.9,2.2l0.2-1.9h1.6V163.4z M319.1,169.7c0-2.7-1.9-4.6-4.6-4.6c-2.6,0-4.6,2-4.6,4.6s2,4.6,4.6,4.6
	C317.2,174.3,319.1,172.4,319.1,169.7"/>
<path class="st0" d="M336.8,163.4v10.8c0,4-2.3,6.5-6.1,6.5c-3.1,0-5.2-1.6-5.9-4.3h2c0.6,1.6,2.1,2.5,4,2.5c2.5,0,4.2-1.7,4.2-4.4
	v-0.8c-1.1,1.2-2.7,1.9-4.6,1.9c-3.5,0-6.2-2.7-6.2-6.2s2.7-6.2,6.2-6.2c2,0,3.7,0.9,4.9,2.2l0.3-1.9h1.2V163.4z M334.8,169.4
	c0-2.5-1.8-4.3-4.3-4.3s-4.4,1.9-4.4,4.3c0,2.4,1.8,4.3,4.4,4.3S334.8,171.8,334.8,169.4"/>
<path class="st0" d="M352.4,170.5h-10.7c0.3,2.3,2,3.8,4.4,3.8c1.7,0,3.1-0.8,3.9-2.2h2.1c-1.1,2.6-3.3,4.1-6,4.1
	c-3.6,0-6.4-2.8-6.4-6.5s2.8-6.5,6.4-6.5c3.8,0,6.3,2.9,6.3,6.6C352.4,170,352.4,170.2,352.4,170.5 M341.8,168.6h8.7
	c-0.4-2.2-2.1-3.6-4.3-3.6C343.8,165,342.2,166.5,341.8,168.6"/>
<path class="st0" d="M366.5,168.5v7.5h-2v-7c0-2.5-1.2-4-3.4-4c-2.1,0-3.8,1.8-3.8,4.2v6.8h-2v-12.5h1.4l0.4,2
	c0.9-1.4,2.5-2.2,4.5-2.2C364.6,163.2,366.5,165.4,366.5,168.5"/>
<path class="st0" d="M376.7,174.1v1.8h-1.6c-2.7,0-4.3-1.7-4.3-4.4v-6.4h-2.2v-0.4l3.9-4.1h0.3v2.7h3.9v1.8h-3.9v6.3
	c0,1.7,0.9,2.6,2.6,2.6L376.7,174.1L376.7,174.1z"/>
<path class="st0" d="M378.3,172.1h1.9c0.1,1.5,1.4,2.3,3.1,2.3s2.9-0.7,2.9-2c0-1.5-1.5-1.8-3.2-2c-2.1-0.4-4.5-0.8-4.5-3.6
	c0-2.2,1.9-3.6,4.7-3.6c2.8,0,4.6,1.5,4.7,3.9H386c-0.1-1.4-1.1-2.1-2.9-2.1c-1.7,0-2.8,0.7-2.8,1.8c0,1.3,1.4,1.6,3.1,1.8
	c2.2,0.4,4.7,0.8,4.7,3.8c0,2.3-2,3.9-5,3.9C380.3,176.2,378.4,174.6,378.3,172.1"/>
<path class="st1" d="M181.3,89.3V177H205V78.8c-27.3-14-54.6-28.1-82-42.1l0.1,22.6L181.3,89.3z"/>
<polyline class="st1" points="181.3,89.3 181.3,177 205,177 205,78.8 "/>
<polygon class="st1" points="142.7,106.8 142.7,177 165.7,177 165.7,97.7 123.1,73.6 123.2,98 "/>
<polyline class="st1" points="142.7,106.8 142.7,177 165.7,177 165.7,97.7 "/>
<polygon class="st1" points="90.2,177 90.2,106.8 109.7,98 109.8,73.7 66.6,97.7 66.6,177 "/>
<polyline class="st1" points="66.6,97.7 66.6,177 90.2,177 90.2,106.8 "/>
<path class="st1" d="M51.6,177V89.3l15-7.7l43.3-22.2l0.1-22.6c-27.3,14-54.6,28.1-82,42.1V177H51.6z"/>
<polyline class="st1" points="27.9,78.8 27.9,177 51.6,177 51.6,89.3 "/>
</svg>
