<?xml version="1.0" encoding="utf-8"?>
<!-- Generator: Adobe Illustrator 23.0.3, SVG Export Plug-In . SVG Version: 6.00 Build 0)  -->
<svg version="1.1" id="Layer_1" xmlns="http://www.w3.org/2000/svg" xmlns:xlink="http://www.w3.org/1999/xlink" x="0px" y="0px"
	 viewBox="0 0 255 167" style="enable-background:new 0 0 255 167;" xml:space="preserve">
<style type="text/css">
	.st0{fill:#2C466C;}
	.st1{fill:#F36B23;}
	.st2{fill-rule:evenodd;clip-rule:evenodd;fill:#F36B23;}
	.st3{fill-rule:evenodd;clip-rule:evenodd;fill:#D7571F;}
	.st4{fill-rule:evenodd;clip-rule:evenodd;fill:#2C466C;}
	.st5{fill-rule:evenodd;clip-rule:evenodd;fill:#213859;}
</style>
<g>
	<path class="st0" d="M19.6,117.5v6.5h7.8v2.3h-7.8v8.5h-2.5v-19.6h11v2.3H19.6z"/>
	<path class="st0" d="M31,128.4v-8.7h2.4v8.3c0,3,1.7,4.8,4.3,4.8c2.7,0,4.3-1.8,4.3-4.8v-8.3h2.4v8.7c0,4.1-2.6,6.7-6.7,6.7
		C33.6,135.1,31,132.4,31,128.4z"/>
	<path class="st0" d="M48.9,114.2h2.4v20.5h-2.4V114.2z"/>
	<path class="st0" d="M56.1,114.2h2.4v20.5h-2.4V114.2z"/>
	<path class="st0" d="M71.2,119.3c4.6,0,7.8,3.4,7.8,7.9c0,4.5-3.2,7.9-7.8,7.9c-2.4,0-4.4-0.9-5.8-2.5l-0.3,2.1h-1.8v-20.5h2.4v7.3
		C67,120.1,69,119.3,71.2,119.3L71.2,119.3z M76.6,127.2c0-3.2-2.3-5.6-5.5-5.6c-3.2,0-5.6,2.4-5.6,5.6c0,3.2,2.4,5.6,5.6,5.6
		C74.2,132.8,76.6,130.4,76.6,127.2z"/>
	<path class="st0" d="M90.8,119.5v2.3h-1.5c-2.8,0-4.3,1.8-4.3,4.7v8.2h-2.4v-15.1h1.7l0.4,2.3c1.1-1.5,2.7-2.4,4.8-2.4H90.8z"/>
	<path class="st0" d="M91.7,127.2c0-4.6,3.4-7.9,8-7.9c4.6,0,8,3.4,8,7.9c0,4.5-3.4,7.9-8,7.9C95.2,135.1,91.7,131.7,91.7,127.2z
		 M99.7,132.8c3.2,0,5.6-2.3,5.6-5.6c0-3.2-2.3-5.6-5.6-5.6s-5.6,2.3-5.6,5.6C94.2,130.4,96.5,132.8,99.7,132.8L99.7,132.8z"/>
	<path class="st0" d="M110.2,127.2c0-4.6,3.4-7.9,8-7.9c4.6,0,8,3.4,8,7.9c0,4.5-3.4,7.9-8,7.9C113.6,135.1,110.2,131.7,110.2,127.2
		z M118.2,132.8c3.2,0,5.6-2.3,5.6-5.6c0-3.2-2.3-5.6-5.6-5.6s-5.6,2.3-5.6,5.6C112.6,130.4,114.9,132.8,118.2,132.8L118.2,132.8z"
		/>
	<path class="st0" d="M134.6,128h-2.2v6.8H130v-20.5h2.4v11.5h2.2l4.7-6.1h2.9l-5.5,7.2l6.1,7.9h-3L134.6,128z"/>
	<path class="st0" d="M164.8,134.7c-0.6-0.6-1.1-1.2-1.6-1.8c-1.5,1.3-3.5,2.1-5.8,2.1c-3.6,0-5.9-2.1-5.9-5.2
		c0-2.8,1.9-4.4,3.9-5.7c-1.7-2.3-2.2-3.6-2.2-5c0-2.6,2-4.2,4.9-4.2c2.9,0,4.9,1.7,4.9,4.1c0,2.8-2.3,4.3-4.6,5.7
		c1.2,1.4,2.7,3.2,4.6,5.3c0.6-1.1,1-2.4,1-3.8h2c0,2.1-0.6,4-1.6,5.5c0.9,1,1.9,2.1,3,3.3H164.8z M157.5,132.9c1.6,0,3-0.5,4.1-1.5
		c-2.2-2.4-3.8-4.2-5.1-5.7c-1.6,1.1-3,2.2-3,4.1C153.6,131.6,155.2,132.9,157.5,132.9L157.5,132.9z M158.1,116.7
		c-1.7,0-2.8,0.9-2.8,2.3c0,0.9,0.6,2.2,1.9,4c2-1.1,3.7-2.2,3.7-4.1C160.8,117.6,159.7,116.7,158.1,116.7L158.1,116.7z"/>
	<path class="st0" d="M179.5,117.5v6.5h7.8v2.3h-7.8v8.5h-2.5v-19.6h11v2.3H179.5z"/>
	<path class="st0" d="M191.4,114.2h2.4v20.5h-2.4V114.2z"/>
	<path class="st0" d="M197.4,127.2c0-4.6,3.4-7.9,8-7.9c4.6,0,8,3.4,8,7.9c0,4.5-3.4,7.9-8,7.9C200.8,135.1,197.4,131.7,197.4,127.2
		z M205.4,132.8c3.2,0,5.6-2.3,5.6-5.6c0-3.2-2.3-5.6-5.6-5.6c-3.2,0-5.6,2.3-5.6,5.6C199.8,130.4,202.2,132.8,205.4,132.8
		L205.4,132.8z"/>
	<path class="st0" d="M215.8,127.2c0-4.6,3.4-7.9,8-7.9c4.6,0,8,3.4,8,7.9c0,4.5-3.4,7.9-8,7.9C219.2,135.1,215.8,131.7,215.8,127.2
		z M223.8,132.8c3.2,0,5.6-2.3,5.6-5.6c0-3.2-2.3-5.6-5.6-5.6s-5.6,2.3-5.6,5.6C218.2,130.4,220.6,132.8,223.8,132.8L223.8,132.8z"
		/>
	<path class="st0" d="M243.7,119.5v2.3h-1.5c-2.8,0-4.3,1.8-4.3,4.7v8.2h-2.4v-15.1h1.7l0.4,2.3c1.1-1.5,2.7-2.4,4.8-2.4H243.7z"/>
</g>
<g>
	<path class="st1" d="M83,152.5h-7.7c0.2,1.7,1.5,2.8,3.2,2.8c1.2,0,2.3-0.6,2.8-1.6h1.5c-0.8,1.9-2.3,2.9-4.3,2.9
		c-2.6,0-4.6-2-4.6-4.7c0-2.7,2-4.7,4.6-4.7c2.7,0,4.5,2.1,4.5,4.7C83,152.2,83,152.4,83,152.5z M78.5,148.6c-1.6,0-2.8,1-3.1,2.6
		h6.3C81.3,149.6,80.1,148.6,78.5,148.6L78.5,148.6z"/>
	<path class="st1" d="M84.4,153.7h1.4c0.1,1.1,1,1.6,2.3,1.6c1.2,0,2.1-0.5,2.1-1.4c0-1.1-1.1-1.3-2.3-1.5c-1.5-0.3-3.3-0.6-3.3-2.6
		c0-1.6,1.4-2.6,3.4-2.6c2,0,3.3,1.1,3.4,2.8H90c-0.1-1-0.8-1.5-2.1-1.5c-1.2,0-2,0.5-2,1.3c0,1,1,1.1,2.2,1.3
		c1.6,0.3,3.4,0.5,3.4,2.7c0,1.7-1.4,2.8-3.6,2.8C85.9,156.7,84.5,155.5,84.4,153.7z"/>
	<path class="st1" d="M98.4,155.2v1.3h-1.2c-1.9,0-3.1-1.2-3.1-3.2v-4.6h-1.6v-0.3l2.8-2.9h0.2v1.9h2.8v1.3h-2.8v4.5
		c0,1.2,0.7,1.9,1.9,1.9H98.4z"/>
	<path class="st1" d="M108.9,147.5v9h-1.2l-0.1-1.4c-0.8,1-2.1,1.6-3.5,1.6c-2.7,0-4.7-2-4.7-4.7c0-2.7,2-4.7,4.7-4.7
		c1.5,0,2.7,0.6,3.6,1.6l0.2-1.4H108.9z M107.5,152c0-1.9-1.4-3.3-3.3-3.3c-1.9,0-3.3,1.4-3.3,3.3c0,1.9,1.4,3.3,3.3,3.3
		C106.1,155.3,107.5,153.9,107.5,152z"/>
	<path class="st1" d="M116.5,155.2v1.3h-1.2c-1.9,0-3.1-1.2-3.1-3.2v-4.6h-1.6v-0.3l2.8-2.9h0.2v1.9h2.8v1.3h-2.8v4.5
		c0,1.2,0.7,1.9,1.9,1.9H116.5z"/>
	<path class="st1" d="M126.7,152.5H119c0.2,1.7,1.5,2.8,3.2,2.8c1.2,0,2.3-0.6,2.8-1.6h1.5c-0.8,1.9-2.3,2.9-4.3,2.9
		c-2.6,0-4.6-2-4.6-4.7c0-2.7,2-4.7,4.6-4.7c2.7,0,4.5,2.1,4.5,4.7C126.7,152.2,126.7,152.4,126.7,152.5z M122.2,148.6
		c-1.6,0-2.8,1-3.1,2.6h6.3C125,149.6,123.8,148.6,122.2,148.6L122.2,148.6z"/>
	<path class="st1" d="M142,147.5v9h-1.2l-0.1-1.4c-0.8,1-2.1,1.6-3.5,1.6c-2.7,0-4.7-2-4.7-4.7c0-2.7,2-4.7,4.7-4.7
		c1.5,0,2.7,0.6,3.6,1.6l0.2-1.4H142z M140.6,152c0-1.9-1.4-3.3-3.3-3.3c-1.9,0-3.3,1.4-3.3,3.3c0,1.9,1.4,3.3,3.3,3.3
		C139.2,155.3,140.6,153.9,140.6,152z"/>
	<path class="st1" d="M153.3,147.5v7.8c0,2.9-1.7,4.7-4.4,4.7c-2.2,0-3.8-1.2-4.3-3.1h1.4c0.4,1.1,1.5,1.8,2.9,1.8
		c1.8,0,3-1.2,3-3.2v-0.6c-0.8,0.8-2,1.3-3.3,1.3c-2.5,0-4.4-1.9-4.4-4.5c0-2.5,1.9-4.5,4.4-4.5c1.4,0,2.7,0.6,3.5,1.6l0.2-1.4
		H153.3z M151.9,151.7c0-1.8-1.3-3.1-3.1-3.1c-1.8,0-3.1,1.3-3.1,3.1c0,1.8,1.3,3.1,3.1,3.1S151.9,153.5,151.9,151.7z"/>
	<path class="st1" d="M164.5,152.5h-7.7c0.2,1.7,1.5,2.8,3.2,2.8c1.2,0,2.3-0.6,2.8-1.6h1.5c-0.8,1.9-2.3,2.9-4.3,2.9
		c-2.6,0-4.6-2-4.6-4.7c0-2.7,2-4.7,4.6-4.7c2.7,0,4.5,2.1,4.5,4.7C164.6,152.2,164.6,152.4,164.5,152.5z M156.9,151.2h6.3
		c-0.3-1.6-1.5-2.6-3.1-2.6C158.4,148.6,157.2,149.6,156.9,151.2z"/>
	<path class="st1" d="M174.7,151.1v5.4h-1.4v-5.1c0-1.8-0.9-2.8-2.4-2.8c-1.5,0-2.7,1.3-2.7,3v4.9h-1.4v-9h1l0.3,1.4
		c0.7-1,1.8-1.6,3.2-1.6C173.3,147.3,174.7,148.9,174.7,151.1z"/>
	<path class="st1" d="M182.1,155.2v1.3h-1.2c-1.9,0-3.1-1.2-3.1-3.2v-4.6h-1.6v-0.3l2.8-2.9h0.2v1.9h2.8v1.3h-2.8v4.5
		c0,1.2,0.7,1.9,1.9,1.9H182.1z"/>
	<path class="st1" d="M183.2,153.7h1.4c0.1,1.1,1,1.6,2.3,1.6c1.2,0,2.1-0.5,2.1-1.4c0-1.1-1.1-1.3-2.3-1.5
		c-1.5-0.3-3.3-0.6-3.3-2.6c0-1.6,1.4-2.6,3.4-2.6s3.3,1.1,3.4,2.8h-1.3c-0.1-1-0.8-1.5-2.1-1.5c-1.2,0-2,0.5-2,1.3
		c0,1,1,1.1,2.2,1.3c1.6,0.3,3.4,0.5,3.4,2.7c0,1.7-1.4,2.8-3.6,2.8C184.7,156.7,183.3,155.5,183.2,153.7z"/>
</g>
<g>
	<path class="st2" d="M171.5,38.3v50.2H185V32.3c-15.6-8-31.2-16.1-46.9-24.1l0,12.9L171.5,38.3z"/>
</g>
<g>
	<polyline class="st3" points="171.5,38.3 171.5,88.4 185,88.4 185,32.3 	"/>
</g>
<g>
	<polygon class="st2" points="149.4,48.3 149.4,88.4 162.5,88.4 162.5,43.1 138.2,29.3 138.2,43.3 	"/>
</g>
<g>
	<polyline class="st3" points="149.4,48.3 149.4,88.4 162.5,88.4 162.5,43.1 	"/>
</g>
<g>
	<polygon class="st4" points="119.4,88.4 119.4,48.3 130.5,43.3 130.6,29.3 105.8,43.1 105.8,88.4 	"/>
</g>
<g>
	<polyline class="st5" points="105.8,43.1 105.8,88.4 119.4,88.4 119.4,48.3 	"/>
</g>
<g>
	<path class="st4" d="M97.3,88.4V38.3l8.6-4.4l24.7-12.7l0-12.9c-15.6,8-31.2,16.1-46.9,24.1v56.1H97.3z"/>
</g>
<g>
	<polyline class="st5" points="83.7,32.3 83.7,88.4 97.3,88.4 97.3,38.3 	"/>
</g>
</svg>
