<?xml version="1.0" encoding="utf-8"?>
<!-- Generator: Adobe Illustrator 23.0.3, SVG Export Plug-In . SVG Version: 6.00 Build 0)  -->
<svg version="1.1" id="Layer_1" xmlns="http://www.w3.org/2000/svg" xmlns:xlink="http://www.w3.org/1999/xlink" x="0px" y="0px"
	 viewBox="0 0 616 138" style="enable-background:new 0 0 616 138;" xml:space="preserve">
<style type="text/css">
	.st0{fill:#2C466C;}
	.st1{fill:#F36B23;}
	.st2{fill-rule:evenodd;clip-rule:evenodd;fill:#F36B23;}
	.st3{fill-rule:evenodd;clip-rule:evenodd;fill:#D7571F;}
	.st4{fill-rule:evenodd;clip-rule:evenodd;fill:#2C466C;}
	.st5{fill-rule:evenodd;clip-rule:evenodd;fill:#213859;}
</style>
<polygon class="st0" points="182.4,58.1 182.4,69.9 196.7,69.9 196.7,74.1 182.4,74.1 182.4,89.7 177.9,89.7 177.9,53.8 198.1,53.8 
	198.1,58.1 "/>
<path class="st0" d="M203.2,78V62h4.4v15.3c0,5.4,3,8.8,7.9,8.8c4.9,0,7.9-3.4,7.9-8.8V62h4.4v16c0,7.4-4.8,12.3-12.3,12.3
	C208,90.3,203.2,85.4,203.2,78"/>
<rect x="236.1" y="52.1" class="st0" width="4.4" height="37.5"/>
<rect x="249.2" y="52.1" class="st0" width="4.4" height="37.5"/>
<path class="st0" d="M276.9,61.4c8.3,0,14.3,6.2,14.3,14.4c0,8.2-5.9,14.4-14.3,14.4c-4.3,0-8.1-1.7-10.6-4.5l-0.6,3.9h-3.4V52.1
	h4.4v13.4C269.2,62.9,272.8,61.4,276.9,61.4z M286.7,75.8c0-5.9-4.3-10.2-10.1-10.2c-5.9,0-10.2,4.4-10.2,10.2
	c0,5.8,4.3,10.2,10.2,10.2C282.4,86,286.7,81.7,286.7,75.8"/>
<path class="st0" d="M312.8,61.8V66H310c-5.1,0-7.9,3.3-7.9,8.7v15h-4.4V62h3.1l0.7,4.2c2-2.8,4.9-4.4,8.8-4.4H312.8z"/>
<path class="st0" d="M314.5,75.8c0-8.3,6.3-14.4,14.7-14.4c8.4,0,14.7,6.1,14.7,14.4s-6.3,14.4-14.7,14.4
	C320.7,90.3,314.5,84.1,314.5,75.8 M329.1,86c5.9,0,10.2-4.3,10.2-10.2c0-5.9-4.3-10.2-10.2-10.2c-5.9,0-10.2,4.3-10.2,10.2
	C318.9,81.7,323.2,86,329.1,86z"/>
<path class="st0" d="M348.2,75.8c0-8.3,6.3-14.4,14.7-14.4c8.4,0,14.7,6.1,14.7,14.4s-6.3,14.4-14.7,14.4
	C354.5,90.3,348.2,84.1,348.2,75.8 M362.9,86c5.9,0,10.2-4.3,10.2-10.2c0-5.9-4.3-10.2-10.2-10.2c-5.9,0-10.2,4.3-10.2,10.2
	C352.7,81.7,357,86,362.9,86z"/>
<polygon class="st0" points="392.9,77.2 389,77.2 389,89.7 384.6,89.7 384.6,52.1 389,52.1 389,73.2 393,73.2 401.5,62 406.8,62 
	396.7,75.3 407.9,89.7 402.4,89.7 "/>
<path class="st0" d="M448.2,89.7c-1-1.1-2-2.2-3-3.2c-2.7,2.4-6.4,3.8-10.6,3.8c-6.5,0-10.9-3.8-10.9-9.6c0-5.2,3.4-8.1,7.2-10.5
	c-3.2-4.2-4-6.6-4-9.2c0-4.8,3.6-7.7,9.1-7.7c5.3,0,8.9,3,8.9,7.5c0,5.2-4.2,7.9-8.4,10.4c2.1,2.6,4.9,5.8,8.4,9.6
	c1.2-2,1.9-4.3,1.9-7h3.7c0,3.9-1,7.3-2.9,10c1.7,1.8,3.5,3.8,5.5,6H448.2z M434.9,86.3c2.9,0,5.5-1,7.6-2.8c-4-4.4-7-7.7-9.3-10.5
	c-3,1.9-5.4,4.1-5.4,7.5C427.8,84,430.7,86.3,434.9,86.3L434.9,86.3z M435.9,56.7c-3.1,0-5.2,1.7-5.2,4.3c0,1.7,1.1,4,3.5,7.3
	c3.6-2.1,6.7-4.1,6.7-7.5C441,58.3,438.9,56.7,435.9,56.7L435.9,56.7z"/>
<polygon class="st0" points="475.2,58.1 475.2,69.9 489.5,69.9 489.5,74.1 475.2,74.1 475.2,89.7 470.7,89.7 470.7,53.8 490.8,53.8 
	490.8,58.1 "/>
<rect x="497" y="52.1" class="st0" width="4.4" height="37.5"/>
<path class="st0" d="M507.9,75.8c0-8.3,6.3-14.4,14.7-14.4c8.4,0,14.7,6.1,14.7,14.4s-6.3,14.4-14.7,14.4
	C514.2,90.3,507.9,84.1,507.9,75.8 M522.5,86c5.9,0,10.2-4.3,10.2-10.2c0-5.9-4.3-10.2-10.2-10.2c-5.9,0-10.2,4.3-10.2,10.2
	C512.3,81.7,516.6,86,522.5,86z"/>
<path class="st0" d="M541.6,75.8c0-8.3,6.3-14.4,14.7-14.4c8.4,0,14.7,6.1,14.7,14.4s-6.3,14.4-14.7,14.4
	C547.9,90.3,541.6,84.1,541.6,75.8 M556.3,86c5.9,0,10.2-4.3,10.2-10.2c0-5.9-4.3-10.2-10.2-10.2c-5.9,0-10.2,4.3-10.2,10.2
	C546.1,81.7,550.4,86,556.3,86z"/>
<path class="st0" d="M592.7,61.8V66h-2.8c-5.1,0-7.9,3.3-7.9,8.7v15h-4.4V62h3.1l0.7,4.2c2-2.8,4.9-4.4,8.8-4.4H592.7z"/>
<path class="st1" d="M389.4,109.7h-14.1c0.4,3.1,2.7,5.1,5.8,5.1c2.3,0,4.1-1.1,5.1-2.9h2.7c-1.4,3.4-4.3,5.4-7.9,5.4
	c-4.8,0-8.4-3.7-8.4-8.6c0-4.9,3.6-8.6,8.4-8.6c5,0,8.3,3.9,8.3,8.7C389.5,109.1,389.4,109.4,389.4,109.7 M375.4,107.3h11.5
	c-0.6-2.9-2.8-4.8-5.7-4.8C378.1,102.5,375.9,104.4,375.4,107.3"/>
<path class="st1" d="M398.6,117.3c-3.9,0-6.5-2.1-6.6-5.4h2.5c0.1,2,1.8,3,4.1,3c2.3,0,3.9-1,3.9-2.6c0-1.9-2-2.3-4.3-2.7
	c-2.8-0.5-6-1.1-6-4.8c0-2.8,2.5-4.8,6.2-4.8c3.7,0,6.1,2,6.2,5.1h-2.5c-0.1-1.8-1.5-2.8-3.8-2.8c-2.2,0-3.6,0.9-3.6,2.4
	c0,1.7,1.9,2.1,4.1,2.4c2.8,0.5,6.2,1,6.2,5C405.1,115.3,402.5,117.3,398.6,117.3L398.6,117.3z"/>
<path class="st1" d="M417.5,114.5v2.4h-2.1c-3.5,0-5.7-2.2-5.7-5.8v-8.4h-2.9v-0.5l5.1-5.4h0.4v3.5h5.2v2.3h-5.2v8.3
	c0,2.2,1.2,3.5,3.5,3.5H417.5z"/>
<path class="st1" d="M436.9,100.4V117h-2.2l-0.3-2.5c-1.5,1.8-3.8,2.9-6.5,2.9c-4.9,0-8.5-3.7-8.5-8.6c0-4.9,3.7-8.6,8.5-8.6
	c2.7,0,5,1.1,6.5,2.9l0.3-2.5H436.9z M434.2,108.7c0-3.5-2.6-6.1-6.1-6.1c-3.5,0-6.1,2.6-6.1,6.1c0,3.5,2.6,6.1,6.1,6.1
	C431.7,114.8,434.2,112.2,434.2,108.7"/>
<path class="st1" d="M450.8,114.5v2.4h-2.1c-3.5,0-5.7-2.2-5.7-5.8v-8.4H440v-0.5l5.1-5.4h0.4v3.5h5.2v2.3h-5.2v8.3
	c0,2.2,1.2,3.5,3.5,3.5H450.8z"/>
<path class="st1" d="M469.4,109.7h-14.1c0.4,3.1,2.7,5.1,5.8,5.1c2.3,0,4.1-1.1,5.1-2.9h2.7c-1.4,3.4-4.3,5.4-7.9,5.4
	c-4.8,0-8.4-3.7-8.4-8.6c0-4.9,3.6-8.6,8.4-8.6c5,0,8.3,3.9,8.3,8.7C469.5,109.1,469.4,109.4,469.4,109.7 M455.4,107.3h11.5
	c-0.6-2.9-2.8-4.8-5.7-4.8C458.1,102.5,455.9,104.4,455.4,107.3"/>
<path class="st1" d="M497.5,100.4V117h-2.2l-0.3-2.5c-1.5,1.8-3.8,2.9-6.5,2.9c-4.9,0-8.5-3.7-8.5-8.6c0-4.9,3.7-8.6,8.5-8.6
	c2.7,0,5,1.1,6.5,2.9l0.3-2.5H497.5z M494.8,108.7c0-3.5-2.6-6.1-6.1-6.1c-3.5,0-6.1,2.6-6.1,6.1c0,3.5,2.6,6.1,6.1,6.1
	C492.3,114.8,494.8,112.2,494.8,108.7"/>
<path class="st1" d="M518.1,100.4v14.2c0,5.3-3.1,8.6-8.1,8.6c-4,0-6.9-2.1-7.8-5.6h2.6c0.7,2.1,2.8,3.2,5.2,3.2
	c3.3,0,5.6-2.2,5.6-5.9v-1c-1.5,1.5-3.6,2.5-6,2.5c-4.6,0-8.1-3.5-8.1-8.2c0-4.6,3.5-8.2,8.1-8.2c2.6,0,4.9,1.1,6.4,2.9l0.4-2.6
	L518.1,100.4z M509.8,113.9c3.3,0,5.7-2.4,5.7-5.7c0-3.3-2.4-5.7-5.7-5.7c-3.3,0-5.7,2.4-5.7,5.7
	C504.1,111.5,506.5,113.9,509.8,113.9z"/>
<path class="st1" d="M538.7,109.7h-14.1c0.4,3.1,2.7,5.1,5.8,5.1c2.3,0,4.1-1.1,5.1-2.9h2.7c-1.4,3.4-4.3,5.4-7.9,5.4
	c-4.8,0-8.4-3.7-8.4-8.6c0-4.9,3.6-8.6,8.4-8.6c5,0,8.3,3.9,8.3,8.7C538.8,109.1,538.7,109.4,538.7,109.7 M524.7,107.3h11.5
	c-0.6-2.9-2.8-4.8-5.7-4.8C527.4,102.5,525.2,104.4,524.7,107.3"/>
<path class="st1" d="M557.3,107.1v9.9h-2.6v-9.3c0-3.4-1.6-5.2-4.4-5.2c-2.8,0-5,2.4-5,5.5v9h-2.6v-16.5h1.8l0.5,2.6
	c1.2-1.8,3.4-2.9,5.9-2.9C554.8,100.1,557.3,103,557.3,107.1"/>
<path class="st1" d="M570.8,114.5v2.4h-2.1c-3.5,0-5.7-2.2-5.7-5.8v-8.4H560v-0.5l5.1-5.4h0.4v3.5h5.2v2.3h-5.2v8.3
	c0,2.2,1.2,3.5,3.5,3.5H570.8z"/>
<path class="st1" d="M579.5,117.3c-3.9,0-6.5-2.1-6.6-5.4h2.5c0.1,2,1.8,3,4.1,3c2.3,0,3.9-1,3.9-2.6c0-1.9-2-2.3-4.3-2.7
	c-2.8-0.5-6-1.1-6-4.8c0-2.8,2.5-4.8,6.2-4.8c3.7,0,6.1,2,6.2,5.1h-2.5c-0.1-1.8-1.5-2.8-3.8-2.8c-2.2,0-3.6,0.9-3.6,2.4
	c0,1.7,1.9,2.1,4.1,2.4c2.8,0.5,6.2,1,6.2,5C586,115.3,583.4,117.3,579.5,117.3L579.5,117.3z"/>
<path class="st2" d="M137.5,56.4v64.4h17.3V48.8c-20.1-10.3-40.1-20.6-60.2-30.9l0,16.6L137.5,56.4z"/>
<polyline class="st3" points="137.5,56.4 137.5,120.8 154.8,120.8 154.8,48.8 "/>
<polygon class="st4" points="109.1,69.3 109.1,120.8 126,120.8 126,62.6 94.7,45 94.8,62.8 "/>
<polyline class="st5" points="109.1,69.3 109.1,120.8 126,120.8 126,62.6 "/>
<polygon class="st4" points="70.6,120.8 70.6,69.3 84.9,62.8 85,45 53.2,62.6 53.2,120.8 "/>
<polyline class="st5" points="53.2,62.6 53.2,120.8 70.6,120.8 70.6,69.3 "/>
<path class="st2" d="M42.2,120.8V56.4l11-5.7L85,34.4l0-16.6C65,28.2,44.9,38.5,24.9,48.8v72.1H42.2z"/>
<polyline class="st3" points="24.9,48.8 24.9,120.8 42.2,120.8 42.2,56.4 "/>
<g>
</g>
<g>
</g>
<g>
</g>
<g>
</g>
<g>
</g>
<g>
</g>
<g>
</g>
<g>
</g>
<g>
</g>
<g>
</g>
<g>
</g>
<g>
</g>
<g>
</g>
<g>
</g>
<g>
</g>
</svg>
