<?xml version="1.0" encoding="utf-8"?>
<!-- Generator: Adobe Illustrator 23.0.3, SVG Export Plug-In . SVG Version: 6.00 Build 0)  -->
<svg version="1.1" id="Layer_1" xmlns="http://www.w3.org/2000/svg" xmlns:xlink="http://www.w3.org/1999/xlink" x="0px" y="0px"
	 viewBox="0 0 542 124" style="enable-background:new 0 0 542 124;" xml:space="preserve">
<style type="text/css">
	.st0{fill:#2C466C;}
	.st1{fill:#F36B23;}
	.st2{fill-rule:evenodd;clip-rule:evenodd;fill:#F36B23;}
	.st3{fill-rule:evenodd;clip-rule:evenodd;fill:#D7571F;}
	.st4{fill-rule:evenodd;clip-rule:evenodd;fill:#2C466C;}
	.st5{fill-rule:evenodd;clip-rule:evenodd;fill:#213859;}
</style>
<g>
	<path class="st0" d="M153.2,47.8v10.8h13v3.8h-13v14.2h-4.1V44h18.3v3.9H153.2z"/>
	<path class="st0" d="M172.1,66V51.4h4v13.9c0,4.9,2.8,8,7.2,8c4.5,0,7.2-3.1,7.2-8V51.4h4V66c0,6.7-4.3,11.2-11.1,11.2
		C176.5,77.1,172.1,72.7,172.1,66z"/>
	<path class="st0" d="M201.9,42.4h4v34.1h-4V42.4z"/>
	<path class="st0" d="M213.9,42.4h4v34.1h-4V42.4z"/>
	<path class="st0" d="M239,50.9c7.6,0,13,5.6,13,13.1c0,7.5-5.4,13.1-13,13.1c-3.9,0-7.3-1.6-9.7-4.1l-0.5,3.6h-3.1V42.4h4v12.2
		C232.1,52.3,235.3,50.9,239,50.9L239,50.9z M248,64c0-5.3-3.9-9.3-9.2-9.3c-5.3,0-9.3,4-9.3,9.3c0,5.3,3.9,9.3,9.3,9.3
		C244.1,73.3,248,69.3,248,64z"/>
	<path class="st0" d="M271.7,51.3V55h-2.6c-4.6,0-7.2,3-7.2,7.9v13.7h-4V51.4h2.8l0.6,3.8c1.8-2.6,4.4-4,8-4H271.7z"/>
	<path class="st0" d="M273.2,64c0-7.6,5.7-13.1,13.3-13.1c7.6,0,13.3,5.6,13.3,13.1s-5.7,13.1-13.3,13.1
		C279,77.1,273.2,71.5,273.2,64z M286.6,73.3c5.4,0,9.3-3.9,9.3-9.3c0-5.4-3.9-9.3-9.3-9.3c-5.4,0-9.3,3.9-9.3,9.3
		C277.3,69.4,281.2,73.3,286.6,73.3L286.6,73.3z"/>
	<path class="st0" d="M303.9,64c0-7.6,5.7-13.1,13.3-13.1c7.6,0,13.3,5.6,13.3,13.1s-5.7,13.1-13.3,13.1
		C309.6,77.1,303.9,71.5,303.9,64z M326.5,64c0-5.4-3.9-9.3-9.3-9.3S308,58.6,308,64c0,5.4,3.9,9.3,9.3,9.3
		C322.6,73.3,326.5,69.4,326.5,64z"/>
	<path class="st0" d="M344.6,65.3H341v11.3h-4V42.4h4v19.2h3.7l7.8-10.2h4.8L348,63.5l10.1,13.1h-5L344.6,65.3z"/>
	<path class="st0" d="M394.8,76.6c-0.9-1-1.9-2-2.7-2.9c-2.5,2.2-5.8,3.4-9.7,3.4c-5.9,0-9.9-3.5-9.9-8.7c0-4.7,3.1-7.4,6.6-9.6
		c-2.9-3.8-3.7-6-3.7-8.4c0-4.3,3.3-7,8.2-7c4.8,0,8.1,2.8,8.1,6.8c0,4.7-3.8,7.2-7.6,9.4c1.9,2.4,4.5,5.3,7.6,8.8
		c1.1-1.8,1.7-3.9,1.7-6.4h3.4c0,3.5-0.9,6.6-2.6,9.1c1.5,1.7,3.2,3.5,5,5.4H394.8z M382.8,73.5c2.6,0,5-0.9,6.9-2.5
		c-3.6-4-6.4-7-8.5-9.5c-2.7,1.8-4.9,3.7-4.9,6.8C376.3,71.4,378.9,73.5,382.8,73.5L382.8,73.5z M379,50.4c0,1.5,1,3.6,3.2,6.6
		c3.3-1.9,6.1-3.7,6.1-6.8c0-2.2-1.9-3.7-4.6-3.7C380.9,46.6,379,48.1,379,50.4z"/>
	<path class="st0" d="M419.4,47.8v10.8h13v3.8h-13v14.2h-4.1V44h18.3v3.9H419.4z"/>
	<path class="st0" d="M439.2,42.4h4v34.1h-4V42.4z"/>
	<path class="st0" d="M449.1,64c0-7.6,5.7-13.1,13.3-13.1c7.6,0,13.3,5.6,13.3,13.1s-5.7,13.1-13.3,13.1
		C454.9,77.1,449.1,71.5,449.1,64z M471.8,64c0-5.4-3.9-9.3-9.3-9.3s-9.3,3.9-9.3,9.3c0,5.4,3.9,9.3,9.3,9.3
		C467.9,73.3,471.8,69.4,471.8,64z"/>
	<path class="st0" d="M479.8,64c0-7.6,5.7-13.1,13.3-13.1c7.6,0,13.3,5.6,13.3,13.1s-5.7,13.1-13.3,13.1
		C485.5,77.1,479.8,71.5,479.8,64z M502.5,64c0-5.4-3.9-9.3-9.3-9.3s-9.3,3.9-9.3,9.3c0,5.4,3.9,9.3,9.3,9.3
		C498.5,73.3,502.5,69.4,502.5,64z"/>
	<path class="st0" d="M526.2,51.3V55h-2.6c-4.6,0-7.2,3-7.2,7.9v13.7h-4V51.4h2.8l0.6,3.8c1.8-2.6,4.4-4,8-4H526.2z"/>
</g>
<g>
	<path class="st1" d="M341.3,94.8h-12.8c0.4,2.8,2.4,4.6,5.3,4.6c2.1,0,3.7-1,4.7-2.6h2.5c-1.3,3.1-3.9,4.9-7.2,4.9
		c-4.4,0-7.7-3.4-7.7-7.8c0-4.5,3.3-7.8,7.7-7.8c4.6,0,7.6,3.5,7.6,7.9C341.4,94.2,341.3,94.5,341.3,94.8z M333.8,88.3
		c-2.7,0-4.7,1.7-5.2,4.3H339C338.5,89.9,336.4,88.3,333.8,88.3L333.8,88.3z"/>
	<path class="st1" d="M349.6,101.7c-3.6,0-5.9-1.9-6-4.9h2.3c0.1,1.8,1.7,2.7,3.8,2.7c2.1,0,3.5-0.9,3.5-2.3c0-1.8-1.9-2.1-3.9-2.4
		c-2.6-0.4-5.4-1-5.4-4.4c0-2.6,2.3-4.3,5.7-4.3c3.4,0,5.6,1.8,5.7,4.6H353c-0.1-1.6-1.4-2.5-3.5-2.5c-2,0-3.3,0.9-3.3,2.2
		c0,1.6,1.7,1.9,3.7,2.2c2.6,0.4,5.6,0.9,5.6,4.6C355.6,99.9,353.2,101.7,349.6,101.7L349.6,101.7z"/>
	<path class="st1" d="M366.9,99.2v2.2h-1.9c-3.2,0-5.2-2-5.2-5.2v-7.6h-2.6v-0.4l4.6-4.9h0.4v3.2h4.7v2.1h-4.7v7.5
		c0,2,1.1,3.1,3.2,3.1H366.9z"/>
	<path class="st1" d="M384.5,86.4v15h-2l-0.3-2.3c-1.4,1.6-3.5,2.6-5.9,2.6c-4.4,0-7.8-3.4-7.8-7.8c0-4.5,3.3-7.8,7.8-7.8
		c2.5,0,4.5,1,5.9,2.6l0.3-2.3H384.5z M382.1,93.9c0-3.2-2.3-5.5-5.5-5.5c-3.2,0-5.5,2.4-5.5,5.5c0,3.2,2.4,5.5,5.5,5.5
		C379.8,99.4,382.1,97.1,382.1,93.9z"/>
	<path class="st1" d="M397.1,99.2v2.2h-1.9c-3.2,0-5.2-2-5.2-5.2v-7.6h-2.6v-0.4l4.6-4.9h0.4v3.2h4.7v2.1h-4.7v7.5
		c0,2,1.1,3.1,3.2,3.1H397.1z"/>
	<path class="st1" d="M414.1,94.8h-12.8c0.4,2.8,2.4,4.6,5.3,4.6c2.1,0,3.7-1,4.7-2.6h2.5c-1.3,3.1-3.9,4.9-7.2,4.9
		c-4.4,0-7.7-3.4-7.7-7.8c0-4.5,3.3-7.8,7.7-7.8c4.6,0,7.6,3.5,7.6,7.9C414.2,94.2,414.1,94.5,414.1,94.8z M406.6,88.3
		c-2.7,0-4.7,1.7-5.2,4.3h10.4C411.3,89.9,409.3,88.3,406.6,88.3L406.6,88.3z"/>
	<path class="st1" d="M439.6,86.4v15h-2l-0.3-2.3c-1.4,1.6-3.5,2.6-5.9,2.6c-4.4,0-7.8-3.4-7.8-7.8c0-4.5,3.3-7.8,7.8-7.8
		c2.5,0,4.5,1,5.9,2.6l0.3-2.3H439.6z M437.2,93.9c0-3.2-2.3-5.5-5.5-5.5c-3.2,0-5.5,2.4-5.5,5.5c0,3.2,2.4,5.5,5.5,5.5
		C434.9,99.4,437.2,97.1,437.2,93.9z"/>
	<path class="st1" d="M458.4,86.4v12.9c0,4.8-2.8,7.8-7.4,7.8c-3.7,0-6.3-1.9-7.1-5.1h2.4c0.7,1.9,2.6,2.9,4.7,2.9c3,0,5-2,5-5.3
		v-0.9c-1.3,1.4-3.3,2.2-5.5,2.2c-4.2,0-7.4-3.2-7.4-7.4c0-4.2,3.2-7.4,7.4-7.4c2.4,0,4.5,1,5.8,2.7l0.4-2.3H458.4z M456,93.5
		c0-3-2.2-5.2-5.2-5.2c-3,0-5.2,2.2-5.2,5.2c0,2.9,2.2,5.2,5.2,5.2C453.9,98.6,456,96.5,456,93.5z"/>
	<path class="st1" d="M477.1,94.8h-12.8c0.4,2.8,2.4,4.6,5.3,4.6c2.1,0,3.7-1,4.7-2.6h2.5c-1.3,3.1-3.9,4.9-7.2,4.9
		c-4.4,0-7.7-3.4-7.7-7.8c0-4.5,3.3-7.8,7.7-7.8c4.6,0,7.6,3.5,7.6,7.9C477.2,94.2,477.1,94.5,477.1,94.8z M469.6,88.3
		c-2.7,0-4.7,1.7-5.2,4.3h10.4C474.3,89.9,472.3,88.3,469.6,88.3L469.6,88.3z"/>
	<path class="st1" d="M494,92.4v9h-2.4v-8.4c0-3-1.4-4.7-4-4.7c-2.6,0-4.5,2.2-4.5,5v8.2h-2.4v-15h1.7l0.5,2.4
		c1.1-1.7,3-2.7,5.4-2.7C491.8,86,494,88.7,494,92.4z"/>
	<path class="st1" d="M506.2,99.2v2.2h-1.9c-3.2,0-5.2-2-5.2-5.2v-7.6h-2.6v-0.4l4.6-4.9h0.4v3.2h4.7v2.1h-4.7v7.5
		c0,2,1.1,3.1,3.2,3.1H506.2z"/>
	<path class="st1" d="M514.1,101.7c-3.6,0-5.9-1.9-6-4.9h2.3c0.1,1.8,1.7,2.7,3.8,2.7c2.1,0,3.5-0.9,3.5-2.3c0-1.8-1.9-2.1-3.9-2.4
		c-2.6-0.4-5.4-1-5.4-4.4c0-2.6,2.3-4.3,5.7-4.3c3.4,0,5.6,1.8,5.7,4.6h-2.2c-0.1-1.6-1.4-2.5-3.5-2.5c-2,0-3.3,0.9-3.3,2.2
		c0,1.6,1.7,1.9,3.7,2.2c2.6,0.4,5.6,0.9,5.6,4.6C520.1,99.9,517.7,101.7,514.1,101.7L514.1,101.7z"/>
</g>
<g>
	<path class="st2" d="M107.4,46.2v50.2h13.5V40.3c-15.6-8-31.2-16.1-46.9-24.1l0,12.9L107.4,46.2z"/>
</g>
<g>
	<polyline class="st3" points="107.4,46.2 107.4,96.4 120.9,96.4 120.9,40.3 	"/>
</g>
<g>
	<polygon class="st2" points="85.3,56.3 85.3,96.4 98.5,96.4 98.5,51 74.1,37.3 74.2,51.2 	"/>
</g>
<g>
	<polyline class="st3" points="85.3,56.3 85.3,96.4 98.5,96.4 98.5,51 	"/>
</g>
<g>
	<polygon class="st4" points="55.3,96.4 55.3,56.3 66.5,51.2 66.5,37.3 41.8,51 41.8,96.4 	"/>
</g>
<g>
	<polyline class="st5" points="41.8,51 41.8,96.4 55.3,96.4 55.3,56.3 	"/>
</g>
<g>
	<path class="st4" d="M33.2,96.4V46.2l8.6-4.4l24.7-12.7l0-12.9c-15.6,8-31.2,16.1-46.9,24.1v56.1H33.2z"/>
</g>
<g>
	<polyline class="st5" points="19.7,40.3 19.7,96.4 33.2,96.4 33.2,46.2 	"/>
</g>
</svg>
