<?xml version="1.0" encoding="utf-8"?>
<!-- Generator: Adobe Illustrator 23.0.3, SVG Export Plug-In . SVG Version: 6.00 Build 0)  -->
<svg version="1.1" id="Layer_1" xmlns="http://www.w3.org/2000/svg" xmlns:xlink="http://www.w3.org/1999/xlink" x="0px" y="0px"
	 viewBox="0 0 282.3 34" style="enable-background:new 0 0 282.3 34;" xml:space="preserve">
<style type="text/css">
	.st0{fill:#FFFFFF;}
</style>
<path class="st0" d="M138.4,26.3h2c0.1,0,0.2-0.1,0.2-0.2V23c0-0.1-0.1-0.2-0.2-0.2h-2c-0.1,0-0.2,0.1-0.2,0.2v3.1
	C138.2,26.2,138.3,26.3,138.4,26.3 M138.5,23.9h1.7v2.1h-1.7V23.9z M140.2,23.5h-1.7v-0.3h1.7V23.5z"/>
<path class="st0" d="M141.2,26.3h2c0.1,0,0.2-0.1,0.2-0.2V23c0-0.1-0.1-0.2-0.2-0.2h-2c-0.1,0-0.2,0.1-0.2,0.2v3.1
	C141.1,26.2,141.1,26.3,141.2,26.3 M141.4,23.9h1.7v2.1h-1.7V23.9z M143.1,23.5h-1.7v-0.3h1.7V23.5z"/>
<path class="st0" d="M133.2,16.7h2c0.1,0,0.2-0.1,0.2-0.2v-3.1c0-0.1-0.1-0.2-0.2-0.2h-2c-0.1,0-0.2,0.1-0.2,0.2v3.1
	C133,16.6,133.1,16.7,133.2,16.7 M133.4,14.3h1.7v2.1h-1.7V14.3z M135,13.9h-1.7v-0.3h1.7V13.9z"/>
<path class="st0" d="M136.1,16.7h2c0.1,0,0.2-0.1,0.2-0.2v-3.1c0-0.1-0.1-0.2-0.2-0.2h-2c-0.1,0-0.2,0.1-0.2,0.2v3.1
	C135.9,16.6,136,16.7,136.1,16.7 M136.2,14.3h1.7v2.1h-1.7V14.3z M137.9,13.9h-1.7v-0.3h1.7V13.9z"/>
<path class="st0" d="M145.7,16.7h2c0.1,0,0.2-0.1,0.2-0.2v-3.1c0-0.1-0.1-0.2-0.2-0.2h-2c-0.1,0-0.2,0.1-0.2,0.2v3.1
	C145.5,16.6,145.6,16.7,145.7,16.7 M145.9,14.3h1.7v2.1h-1.7V14.3z M147.5,13.9h-1.7v-0.3h1.7V13.9z"/>
<path class="st0" d="M142.8,16.7h2c0.1,0,0.2-0.1,0.2-0.2v-3.1c0-0.1-0.1-0.2-0.2-0.2h-2c-0.1,0-0.2,0.1-0.2,0.2v3.1
	C142.7,16.6,142.7,16.7,142.8,16.7 M143,14.3h1.7v2.1H143V14.3z M144.7,13.9H143v-0.3h1.7V13.9z"/>
<path class="st0" d="M139.5,12.4h2c0.1,0,0.2-0.1,0.2-0.2v-2c0-0.1-0.1-0.2-0.2-0.2h-2c-0.1,0-0.2,0.1-0.2,0.2v2
	C139.3,12.4,139.4,12.4,139.5,12.4 M139.6,10.4h1.7v1.7h-1.7V10.4z"/>
<path class="st0" d="M151.9,26.7h-1.4c-0.1,0-0.2,0.1-0.2,0.2c0,0.1,0.1,0.2,0.2,0.2h1.4c0.1,0,0.2-0.1,0.2-0.2
	C152.1,26.8,152,26.7,151.9,26.7"/>
<path class="st0" d="M77.3,19.9h0.3h2.6h0.3c0.1,0,0.2-0.1,0.2-0.2c0-0.1-0.1-0.2-0.2-0.2h-0.1v-3.5c0-0.1-0.1-0.2-0.2-0.2h-2.6
	c-0.1,0-0.2,0.1-0.2,0.2v3.5h-0.1c-0.1,0-0.2,0.1-0.2,0.2C77.1,19.9,77.2,19.9,77.3,19.9 M80,17.8h-2.3v-1.5H80V17.8z M77.7,18.1H80
	v1.5h-2.3V18.1z"/>
<path class="st0" d="M84.6,19.9h0.3h2.6h0.3c0.1,0,0.2-0.1,0.2-0.2c0-0.1-0.1-0.2-0.2-0.2h-0.1v-5.2c0-0.1-0.1-0.2-0.2-0.2h-2.6
	c-0.1,0-0.2,0.1-0.2,0.2v5.2h-0.1c-0.1,0-0.2,0.1-0.2,0.2C84.4,19.9,84.5,19.9,84.6,19.9 M85,16.4h2.3v1.4H85V16.4z M87.3,16H85
	v-1.5h2.3V16z M85,18.1h2.3v1.5H85V18.1z"/>
<path class="st0" d="M92.1,19.9h0.3h2.6h0.3c0.1,0,0.2-0.1,0.2-0.2c0-0.1-0.1-0.2-0.2-0.2h-0.1v-3.5c0-0.1-0.1-0.2-0.2-0.2h-2.6
	c-0.1,0-0.2,0.1-0.2,0.2v3.5h-0.1c-0.1,0-0.2,0.1-0.2,0.2C91.9,19.9,92,19.9,92.1,19.9 M94.8,17.8h-2.3v-1.5h2.3V17.8z M92.5,18.1
	h2.3v1.5h-2.3V18.1z"/>
<path class="st0" d="M80.4,25.2L80.4,25.2l-0.1-3.5c0-0.1-0.1-0.2-0.2-0.2h-2.6c-0.1,0-0.2,0.1-0.2,0.2v3.5h-0.1
	c-0.1,0-0.2,0.1-0.2,0.2c0,0.1,0.1,0.2,0.2,0.2h0.3h2.6h0.3c0.1,0,0.2-0.1,0.2-0.2C80.6,25.2,80.5,25.2,80.4,25.2 M80,23.3h-2.3
	v-1.5H80V23.3z M77.7,23.7H80v1.5h-2.3V23.7z"/>
<path class="st0" d="M92.1,25.5h0.3h2.6h0.3c0.1,0,0.2-0.1,0.2-0.2c0-0.1-0.1-0.2-0.2-0.2h-0.1v-3.5c0-0.1-0.1-0.2-0.2-0.2h-2.6
	c-0.1,0-0.2,0.1-0.2,0.2v3.5h-0.1c-0.1,0-0.2,0.1-0.2,0.2C91.9,25.4,92,25.5,92.1,25.5 M94.8,23.3h-2.3v-1.5h2.3V23.3z M92.5,23.7
	h2.3v1.5h-2.3V23.7z"/>
<path class="st0" d="M84.7,21.8h-0.5c-0.1,0-0.2,0.1-0.2,0.2v4.2c0,0.1,0.1,0.2,0.2,0.2h0.5c0.1,0,0.2-0.1,0.2-0.2v-4.2
	C84.9,21.8,84.8,21.8,84.7,21.8 M84.6,25.9h-0.2v-3.8h0.2V25.9z"/>
<path class="st0" d="M87,21.8h-1.7c-0.1,0-0.2,0.1-0.2,0.2v2.7c0,0.1,0.1,0.2,0.2,0.2H87c0.1,0,0.2-0.1,0.2-0.2v-2.7
	C87.2,21.8,87.1,21.8,87,21.8 M86.8,24.5h-1.4v-2.4h1.4V24.5z"/>
<path class="st0" d="M87,25h-1.7c-0.1,0-0.2,0.1-0.2,0.2v1c0,0.1,0.1,0.2,0.2,0.2H87c0.1,0,0.2-0.1,0.2-0.2v-1
	C87.2,25.1,87.1,25,87,25 M86.8,25.9h-1.4v-0.6h1.4V25.9z"/>
<path class="st0" d="M88,21.8h-0.5c-0.1,0-0.2,0.1-0.2,0.2v4.2c0,0.1,0.1,0.2,0.2,0.2H88c0.1,0,0.2-0.1,0.2-0.2v-4.2
	C88.2,21.8,88.1,21.8,88,21.8 M87.9,25.9h-0.2v-3.8h0.2V25.9z"/>
<path class="st0" d="M260,17h-2.6c-0.1,0-0.2,0.1-0.2,0.2V21c0,0.1,0.1,0.2,0.2,0.2h2.6c0.1,0,0.2-0.1,0.2-0.2v-3.7
	C260.2,17.1,260.1,17,260,17 M259.8,18.5h-2.3v-1.1h2.3V18.5z M257.6,18.9h1v1.9h-1V18.9z M258.9,18.9h1v1.9h-1V18.9z"/>
<path class="st0" d="M260,21.7h-2.6c-0.1,0-0.2,0.1-0.2,0.2v3.7c0,0.1,0.1,0.2,0.2,0.2h2.6c0.1,0,0.2-0.1,0.2-0.2v-3.7
	C260.2,21.8,260.1,21.7,260,21.7 M259.8,23.2h-2.3v-1.1h2.3V23.2z M257.6,23.6h1v1.9h-1V23.6z M258.9,23.6h1v1.9h-1V23.6z"/>
<path class="st0" d="M261.4,21.1h2.6c0.1,0,0.2-0.1,0.2-0.2v-3.7c0-0.1-0.1-0.2-0.2-0.2h-2.6c-0.1,0-0.2,0.1-0.2,0.2V21
	C261.2,21.1,261.3,21.1,261.4,21.1 M261.6,18.9h1v1.9h-1V18.9z M262.9,18.9h1v1.9h-1V18.9z M263.8,18.5h-2.3v-1.1h2.3V18.5z"/>
<path class="st0" d="M248.4,19.7h-0.2V16c0-0.1-0.1-0.2-0.2-0.2h-2.4c-0.1,0-0.2,0.1-0.2,0.2v3.7h-0.2c-0.1,0-0.2,0.1-0.2,0.2
	c0,0.1,0.1,0.2,0.2,0.2h0.3h2.4h0.3c0.1,0,0.2-0.1,0.2-0.2C248.6,19.7,248.5,19.7,248.4,19.7 M247.9,17.7h-2.1v-1.6h2.1V17.7z
	 M245.8,18.1h2.1v1.6h-2.1V18.1z"/>
<path class="st0" d="M255.6,19.7h-0.2V16c0-0.1-0.1-0.2-0.2-0.2h-2.4c-0.1,0-0.2,0.1-0.2,0.2v3.7h-0.2c-0.1,0-0.2,0.1-0.2,0.2
	c0,0.1,0.1,0.2,0.2,0.2h0.3h2.4h0.3c0.1,0,0.2-0.1,0.2-0.2C255.8,19.7,255.7,19.7,255.6,19.7 M255.1,17.7H253v-1.6h2.1V17.7z
	 M253,18.1h2.1v1.6H253V18.1z"/>
<path class="st0" d="M252,19.7h-0.2V16c0-0.1-0.1-0.2-0.2-0.2h-2.4c-0.1,0-0.2,0.1-0.2,0.2v3.7h-0.2c-0.1,0-0.2,0.1-0.2,0.2
	c0,0.1,0.1,0.2,0.2,0.2h0.3h2.4h0.3c0.1,0,0.2-0.1,0.2-0.2C252.2,19.7,252.1,19.7,252,19.7 M251.5,17.7h-2.1v-1.6h2.1V17.7z
	 M249.4,18.1h2.1v1.6h-2.1V18.1z"/>
<path class="st0" d="M248.4,25.3h-0.2v-3.7c0-0.1-0.1-0.2-0.2-0.2h-2.4c-0.1,0-0.2,0.1-0.2,0.2v3.7h-0.2c-0.1,0-0.2,0.1-0.2,0.2
	c0,0.1,0.1,0.2,0.2,0.2h0.3h2.4h0.3c0.1,0,0.2-0.1,0.2-0.2C248.6,25.4,248.5,25.3,248.4,25.3 M247.9,23.4h-2.1v-1.6h2.1V23.4z
	 M245.8,23.7h2.1v1.6h-2.1V23.7z"/>
<path class="st0" d="M255.6,25.3h-0.2v-3.7c0-0.1-0.1-0.2-0.2-0.2h-2.4c-0.1,0-0.2,0.1-0.2,0.2v3.7h-0.2c-0.1,0-0.2,0.1-0.2,0.2
	c0,0.1,0.1,0.2,0.2,0.2h0.3h2.4h0.3c0.1,0,0.2-0.1,0.2-0.2C255.8,25.4,255.7,25.3,255.6,25.3 M255.1,23.4H253v-1.6h2.1V23.4z
	 M253,23.7h2.1v1.6H253V23.7z"/>
<path class="st0" d="M252,25.3h-0.2v-3.7c0-0.1-0.1-0.2-0.2-0.2h-2.4c-0.1,0-0.2,0.1-0.2,0.2v3.7h-0.2c-0.1,0-0.2,0.1-0.2,0.2
	c0,0.1,0.1,0.2,0.2,0.2h0.3h2.4h0.3c0.1,0,0.2-0.1,0.2-0.2C252.2,25.4,252.1,25.3,252,25.3 M251.5,23.4h-2.1v-1.6h2.1V23.4z
	 M249.4,23.7h2.1v1.6h-2.1V23.7z"/>
<path class="st0" d="M250.5,13c0.7,0,1.3-0.6,1.3-1.3c0-0.7-0.6-1.3-1.3-1.3s-1.3,0.6-1.3,1.3C249.2,12.4,249.8,13,250.5,13
	 M249.6,11.9h0.7v0.7C249.9,12.5,249.6,12.2,249.6,11.9 M250.6,12.6v-0.7h0.7C251.3,12.2,251,12.5,250.6,12.6 M251.4,11.5h-0.7v-0.7
	C251,10.9,251.3,11.2,251.4,11.5 M250.3,10.8v0.7h-0.7C249.6,11.2,249.9,10.9,250.3,10.8"/>
<path class="st0" d="M262.7,23.9c0.4,0,0.7-0.3,0.7-0.7c0-0.4-0.3-0.7-0.7-0.7c-0.4,0-0.7,0.3-0.7,0.7
	C262,23.6,262.3,23.9,262.7,23.9 M262.7,22.9c0.2,0,0.3,0.2,0.3,0.3s-0.2,0.3-0.3,0.3c-0.2,0-0.3-0.2-0.3-0.3S262.5,22.9,262.7,22.9
	"/>
<path class="st0" d="M13.1,17.6H17c0.1,0,0.2-0.1,0.2-0.2v-3.9c0-0.1-0.1-0.2-0.2-0.2h-3.9c-0.1,0-0.2,0.1-0.2,0.2v3.9
	C13,17.5,13,17.6,13.1,17.6 M13.3,13.7h3.6v3.6h-3.6V13.7z"/>
<path class="st0" d="M13.1,25.8h2.6c0.1,0,0.2-0.1,0.2-0.2v-3.9c0-0.1-0.1-0.2-0.2-0.2h-2.6c-0.1,0-0.2,0.1-0.2,0.2v3.9
	C13,25.7,13,25.8,13.1,25.8 M13.3,21.8h2.3v3.6h-2.3V21.8z"/>
<path class="st0" d="M27.5,17.6h3.9c0.1,0,0.2-0.1,0.2-0.2v-3.9c0-0.1-0.1-0.2-0.2-0.2h-3.9c-0.1,0-0.2,0.1-0.2,0.2v3.9
	C27.3,17.5,27.4,17.6,27.5,17.6 M27.7,13.7h3.6v3.6h-3.6V13.7z"/>
<path class="st0" d="M28.6,21.7v3.9c0,0.1,0.1,0.2,0.2,0.2h2.6c0.1,0,0.2-0.1,0.2-0.2v-3.9c0-0.1-0.1-0.2-0.2-0.2h-2.6
	C28.7,21.5,28.6,21.6,28.6,21.7 M29,21.8h2.3v3.6H29V21.8z"/>
<path class="st0" d="M21.3,15.7h2c0.1,0,0.2-0.1,0.2-0.2v-2c0-0.1-0.1-0.2-0.2-0.2h-2c-0.1,0-0.2,0.1-0.2,0.2v2
	C21.1,15.6,21.2,15.7,21.3,15.7 M21.4,13.7h1.7v1.7h-1.7V13.7z"/>
<path class="st0" d="M23.2,22.5h-1.9c-0.1,0-0.2,0.1-0.2,0.2v3.7c0,0.1,0.1,0.2,0.2,0.2h1.9c0.1,0,0.2-0.1,0.2-0.2v-3.7
	C23.4,22.6,23.3,22.5,23.2,22.5 M23.1,26.3h-1.6v-3.4h1.6V26.3z"/>
<path class="st0" d="M38.4,19.1c-0.3,0-0.6,0.3-0.6,0.6c0,0.3,0.3,0.6,0.6,0.6c0.3,0,0.6-0.3,0.6-0.6C39,19.4,38.7,19.1,38.4,19.1
	 M38.4,20c-0.1,0-0.3-0.1-0.3-0.3c0-0.1,0.1-0.3,0.3-0.3c0.1,0,0.3,0.1,0.3,0.3C38.6,19.9,38.5,20,38.4,20"/>
<path class="st0" d="M194.1,16.4l-2.4-1.4c-0.1,0-0.1,0-0.2,0l-2.4,1.4c-0.1,0-0.1,0.2-0.1,0.2l0.4,0.7c0,0,0.1,0.1,0.1,0.1
	c0,0,0,0,0,0c0,0,0.1,0,0.1,0l0.1-0.1v2.6c0,0.1,0.1,0.2,0.2,0.2h3.1c0.1,0,0.2-0.1,0.2-0.2v-2.6l0.1,0.1c0,0,0.1,0,0.1,0
	c0,0,0.1,0,0.1-0.1l0.4-0.7C194.2,16.6,194.2,16.4,194.1,16.4 M193,19.7h-2.8v-2.6l1.4-0.9l1.4,0.9V19.7z M193.6,17l-0.2-0.1
	c0,0,0,0,0,0l-1.6-1c0,0,0,0,0,0c0,0-0.1,0-0.1,0c0,0,0,0,0,0l-1.6,1c0,0,0,0,0,0l-0.2,0.1l-0.2-0.4l2.1-1.3l2.1,1.3L193.6,17z"/>
<path class="st0" d="M207.4,14.9l-2.4,1.4c-0.1,0.1-0.1,0.2-0.1,0.2l0.4,0.7c0,0,0.1,0.1,0.1,0.1c0,0,0,0,0,0c0,0,0.1,0,0.1,0
	l0.1-0.1v2.6c0,0.1,0.1,0.2,0.2,0.2h3.1c0.1,0,0.2-0.1,0.2-0.2v-2.6l0.1,0.1c0,0,0.1,0,0.1,0c0,0,0.1,0,0.1-0.1l0.4-0.7
	c0-0.1,0-0.2-0.1-0.2l-2.4-1.4C207.5,14.9,207.5,14.9,207.4,14.9 M208.9,19.7h-2.8v-2.6l1.4-0.9l1.4,0.9V19.7z M209.6,16.6l-0.2,0.4
	l-0.2-0.1c0,0,0,0,0,0l-1.6-1c0,0,0,0,0,0c0,0-0.1,0-0.1,0c0,0,0,0,0,0l-1.6,1c0,0,0,0,0,0l-0.2,0.1l-0.2-0.4l2.1-1.3L209.6,16.6z"
	/>
<path class="st0" d="M191,22.9h-1.7c-0.1,0-0.2,0.1-0.2,0.2v3.1c0,0.1,0.1,0.2,0.2,0.2h1.7c0.1,0,0.2-0.1,0.2-0.2v-3.1
	C191.1,23,191.1,22.9,191,22.9 M190.8,26h-1.4v-2.8h1.4V26z"/>
<path class="st0" d="M193.7,22.9H192c-0.1,0-0.2,0.1-0.2,0.2v3.1c0,0.1,0.1,0.2,0.2,0.2h1.7c0.1,0,0.2-0.1,0.2-0.2v-3.1
	C193.9,23,193.8,22.9,193.7,22.9 M193.6,26h-1.4v-2.8h1.4V26z"/>
<path class="st0" d="M209.9,22.9h-1.7c-0.1,0-0.2,0.1-0.2,0.2v3.1c0,0.1,0.1,0.2,0.2,0.2h1.7c0.1,0,0.2-0.1,0.2-0.2v-3.1
	C210.1,23,210,22.9,209.9,22.9 M209.8,26h-1.4v-2.8h1.4V26z"/>
<path class="st0" d="M207.2,22.9h-1.7c-0.1,0-0.2,0.1-0.2,0.2v3.1c0,0.1,0.1,0.2,0.2,0.2h1.7c0.1,0,0.2-0.1,0.2-0.2v-3.1
	C207.3,23,207.2,22.9,207.2,22.9 M207,26h-1.4v-2.8h1.4V26z"/>
<path class="st0" d="M278.3,27.8c0-0.1-0.1-0.2-0.2-0.2h-2.5v-5.7v-1.9c0-2.3-1.8-4.1-4.1-4.1c-1.4,0-2.7,0.7-3.5,1.9
	c-0.3-0.1-0.7-0.2-1.1-0.2c-0.6,0-1.3,0.2-1.8,0.5v-1.6h0.5c0.1,0,0.2-0.1,0.2-0.2V9.8c0-0.1-0.1-0.2-0.2-0.2h-13.1l-2.1-1.9
	c-0.1-0.1-0.2-0.1-0.2,0l-7,6.3c0,0-0.1,0.1-0.1,0.1c0,0.1,0,0.1,0.1,0.1l0.6,0.5c0,0,0.1,0,0.1,0c0,0,0.1,0,0.1,0l0.2-0.2v2.1
	c-0.3-0.2-0.6-0.3-1-0.3c-0.5,0-0.9,0.2-1.3,0.5c-0.5-1-1.4-1.6-2.5-1.6c-1.5,0-2.7,1.2-2.8,2.6c-0.2,0-0.4-0.1-0.5-0.1
	c-1.3,0-2.4,1.1-2.4,2.4v1.8v5.7h-22.5v-6.3h1.2c0,0,0,0,0.1,0c0,0,0,0,0,0c0,0,0,0,0,0c0,0,0,0,0,0c0,0,0,0,0,0c0,0,0,0,0,0
	c0,0,0,0,0,0c0,0,0,0,0,0c0,0,0,0,0,0c0,0,0,0,0,0c0,0,0,0,0,0l-2.8-7.3c0-0.1-0.1-0.1-0.2-0.1h-2.3v-0.9h0.2c0.1,0,0.2-0.1,0.2-0.2
	v-0.5c0-0.1-0.1-0.2-0.2-0.2h-2.4c-0.1,0-0.2,0.1-0.2,0.2v0.5c0,0.1,0.1,0.2,0.2,0.2h0.2v0.9h-12v-0.9h0.2c0.1,0,0.2-0.1,0.2-0.2
	v-0.5c0-0.1-0.1-0.2-0.2-0.2h-2.4c-0.1,0-0.2,0.1-0.2,0.2v0.5c0,0.1,0.1,0.2,0.2,0.2h0.2v0.9h-1.3c-0.2-0.4-0.5-0.7-0.8-0.9
	c0.3-0.4,0.4-0.8,0.4-1.3c0-1.3-1.1-2.4-2.4-2.4c-0.6,0-1.2,0.2-1.7,0.7c-0.7-0.8-1.6-1.2-2.6-1.2c-1.9,0-3.5,1.6-3.5,3.5
	c0,1.2,0.6,2.2,1.5,2.9c0,0,0,0,0,0.1c0,1.2,1,2.2,2.2,2.2c0,0,0.1,0,0.1,0c0.2,0.7,0.7,1.3,1.2,1.8c-0.3,1.4-0.6,3-0.8,4.8
	c-0.6-1.4-1-2.1-1.2-2.3c0.2-0.4,0.3-0.8,0.3-1.2c0-1.6-1.3-2.9-2.8-2.9c-0.4-0.6-1.1-1-1.8-1c-1.2,0-2.2,1-2.2,2.2
	c0,0.7,0.4,1.4,1,1.8c0.1,1.5,1.4,2.8,2.9,2.8c0.8,0,1.6-0.3,2.1-0.9c0.4,0.6,1.5,2.6,1.5,4.9v0c0,0.2,0,0.4,0,0.6h-26v-6.2l0.7,0.3
	c0,0,0,0,0.1,0c0,0,0.1,0,0.1-0.1l0.5-0.5c0,0,0.1-0.1,0-0.2c0-0.1,0-0.1-0.1-0.1l-7.5-3.5c0,0-0.1,0-0.1,0l-2,0.9v-5.9l1.4,0.6
	c0,0,0,0,0.1,0c0,0,0.1,0,0.1-0.1l0.5-0.5c0,0,0.1-0.1,0-0.2c0-0.1,0-0.1-0.1-0.1l-10.7-4.9c0,0-0.1,0-0.1,0l-4.4,2V7.4h0.1
	c0.1,0,0.2-0.1,0.2-0.2V6.5c0-0.1-0.1-0.2-0.2-0.2h-3.1c-0.1,0-0.2,0.1-0.2,0.2v0.7c0,0.1,0.1,0.2,0.2,0.2h0.1v3.2l-3.4,1.5
	c-0.1,0-0.1,0.1-0.1,0.1c0,0.1,0,0.1,0,0.2l0.5,0.5c0.1,0.1,0.1,0.1,0.2,0l1.2-0.6v5.8l-0.9,2.8c0,0.1,0,0.1,0,0.2
	c0,0,0.1,0.1,0.1,0.1h0.7v6.3h-3.7V25h1.9c0.1,0,0.1,0,0.2-0.1c0-0.1,0-0.1,0-0.2l-1.5-2.5h0.6c0.1,0,0.1,0,0.2-0.1
	c0-0.1,0-0.1,0-0.2l-1.4-2.3h0.4c0.1,0,0.1,0,0.1-0.1c0-0.1,0-0.1,0-0.2l-1-2.1c-0.1-0.1-0.3-0.1-0.3,0l-1,2.1c0,0.1,0,0.1,0,0.2
	c0,0.1,0.1,0.1,0.1,0.1h0.4l-1.4,2.3c0,0.1,0,0.1,0,0.2c0,0.1,0.1,0.1,0.2,0.1h0.6l-1.5,2.5c0,0.1,0,0.1,0,0.2
	c0,0.1,0.1,0.1,0.2,0.1h1.9v2.6h-20.3v-5.9c0-0.1-0.1-0.2-0.2-0.2h-0.6c0.2-0.6,0.2-1.2,0-1.8c-0.2-0.6-0.7-1-1.3-1.3
	c-0.7-0.3-1.5-0.2-2.2,0.2c-0.4-0.5-0.9-1-1.5-1.2c-0.9-0.4-2-0.3-2.9,0.1v-3.1H98c0.1,0,0.2-0.1,0.2-0.2v-0.7
	c0-0.1-0.1-0.2-0.2-0.2l-6-3.9c0,0-0.1,0-0.1,0h-4.4l-1.1-0.8c-0.1,0-0.1,0-0.2,0L85,9.5h-4.4c0,0-0.1,0-0.1,0l-6.1,4c0,0,0,0,0,0
	c0,0,0,0,0,0c0,0,0,0,0,0c0,0,0,0,0,0c0,0,0,0,0,0c0,0,0,0,0,0v0.7c0,0.1,0.1,0.2,0.2,0.2H75v3.1c-0.6-0.5-1.4-0.8-2.2-0.8
	c-1.6,0-3,1.1-3.4,2.7c-0.1,0-0.3,0-0.4,0c-1.2,0-2.2,0.9-2.3,2h-0.2c-0.1,0-0.2,0.1-0.2,0.2v5.9H44.6v-6.9l0.6,0.2c0,0,0,0,0.1,0
	c0,0,0,0,0.1,0c0,0,0.1-0.1,0.1-0.1l0.4-0.9c0-0.1,0-0.2-0.1-0.2l-2.3-1v-2.2c0.3,0.3,0.8,0.5,1.3,0.5c1,0,1.9-0.8,1.9-1.9
	c0-0.2,0-0.3-0.1-0.5c0.8-0.3,1.4-1.1,1.4-1.9c0-0.7-0.3-1.3-0.9-1.7c0.4-0.5,0.7-1.2,0.7-1.9c0-1.6-1.3-2.8-2.8-2.8
	c-0.7,0-1.4,0.3-1.9,0.7c-0.6-0.1-1.3-0.2-1.9,0c-0.3-0.6-0.9-1-1.5-1c-0.9,0-1.7,0.8-1.7,1.7c0,0.4,0.1,0.8,0.4,1.1
	c-0.4,0.5-0.7,1.1-0.8,1.7c-1.2,0.3-2.1,1.5-2.1,2.7c0,1.6,1.3,2.8,2.8,2.8c0.5,0,1.1-0.1,1.5-0.4c0.5,0.3,1.1,0.5,1.6,0.5v1.7
	l-2.9-1.2c0,0-0.1,0-0.1,0l-4.1,1.8v-6.5h1c0.1,0,0.1,0,0.2-0.1s0-0.1,0-0.2l-2.8-4.5c0-0.1-0.1-0.1-0.1-0.1h-1.9V5.4h0.2
	c0.1,0,0.2-0.1,0.2-0.2V4.5c0-0.1-0.1-0.2-0.2-0.2h-3.3c-0.1,0-0.2,0.1-0.2,0.2v0.7c0,0.1,0.1,0.2,0.2,0.2h0.2V7H12.1
	c-0.1,0-0.1,0-0.1,0.1l-2.8,4.5c0,0.1,0,0.1,0,0.2c0,0.1,0.1,0.1,0.2,0.1h1v12.7c0,0-0.1,0-0.1,0c-0.6,0-1.1,0.2-1.5,0.6
	c-0.4-0.3-0.9-0.5-1.4-0.5c-1.3,0-2.3,1-2.3,2.3c0,0.2,0,0.4,0.1,0.6H4.5c-0.1,0-0.2,0.1-0.2,0.2c0,0.1,0.1,0.2,0.2,0.2h0.9h5.2h1.6
	h5.8h2.8h3.1h2.8h5.7H34h8.7h1.7h22h0.9h0.9h0.9H70h0.9h0.9h0.9h0.9h0.9h0.9h7.7h6.4h7.9h0.9H99h0.9h0.9h0.9h0.9h0.9h0.9h0.9h0.9
	h20.6h1h4.1h2.6h2.5h8.3h1.7h8.7h1.7h26.4h0.8h3.4h7.4h3h2.6h3h7.4h22.8h1h0.7h1h0.7h1h0.7h1h0.7h1h0.7h1h0.7h11.8h4.4h3.8h0.4h0.7
	h1h0.7h1h0.7h1h0.7h1h0.7h1h0.7h1h2.7C278.2,27.9,278.3,27.9,278.3,27.8 M267,18.1c0.4,0,0.7,0.1,1.1,0.2c0.1,0,0.2,0,0.2-0.1
	c0.7-1.2,1.9-1.9,3.3-1.9c2.1,0,3.7,1.7,3.7,3.7v1.3c-0.1-0.1-0.2-0.1-0.3-0.1c-0.4,0-0.7,0.3-0.7,0.7v0.9h-0.3v-0.9
	c0-0.4-0.3-0.7-0.7-0.7s-0.7,0.3-0.7,0.7v0.9h-0.3v-0.9c0-0.4-0.3-0.7-0.7-0.7c-0.4,0-0.7,0.3-0.7,0.7v0.9h-0.3v-0.9
	c0-0.4-0.3-0.7-0.7-0.7c-0.4,0-0.7,0.3-0.7,0.7v0.9h-0.3v-0.9c0-0.4-0.3-0.7-0.7-0.7s-0.7,0.3-0.7,0.7v0.9H267v-0.9
	c0-0.4-0.3-0.7-0.7-0.7c-0.4,0-0.7,0.3-0.7,0.7v0.9h-0.3v-4.1C265.7,18.3,266.4,18.1,267,18.1 M273.9,26.4h0.3v0.2h-0.3V26.4z
	 M274.3,26h-0.3v-2.4h0.3V26z M274.3,23.3h-0.3v-0.2h0.3V23.3z M273.9,26.9h0.3v0.7h-0.3V26.9z M272.2,26.4h0.3v0.2h-0.3V26.4z
	 M272.5,26h-0.3v-2.4h0.3V26z M272.5,23.3h-0.3v-0.2h0.3V23.3z M272.2,26.9h0.3v0.7h-0.3V26.9z M270.4,26.4h0.3v0.2h-0.3V26.4z
	 M270.8,26h-0.3v-2.4h0.3V26z M270.8,23.3h-0.3v-0.2h0.3V23.3z M270.4,26.9h0.3v0.7h-0.3V26.9z M268.7,26.4h0.3v0.2h-0.3V26.4z
	 M269,26h-0.3v-2.4h0.3V26z M269,23.3h-0.3v-0.2h0.3V23.3z M268.7,26.9h0.3v0.7h-0.3V26.9z M267,26.4h0.3v0.2H267V26.4z M267.3,26
	H267v-2.4h0.3V26z M267.3,23.3H267v-0.2h0.3V23.3z M267,26.9h0.3v0.7H267V26.9z M265.6,23.3h-0.3v-0.2h0.3V23.3z M265.2,23.7h0.3V26
	h-0.3V23.7z M265.2,26.4h0.3v0.2h-0.3V26.4z M265,16.4h-8.5V16l0.2,0.1c0.1,0.1,0.2,0.1,0.2,0l0.5-0.4l0.5,0.4
	c0.1,0.1,0.2,0.1,0.2,0l0.5-0.4l0.5,0.4c0.1,0.1,0.2,0.1,0.2,0l0.5-0.4l0.5,0.4c0.1,0.1,0.2,0.1,0.2,0l0.5-0.4l0.5,0.4
	c0.1,0.1,0.2,0.1,0.2,0l0.5-0.4l0.5,0.4c0.1,0.1,0.2,0.1,0.2,0l0.5-0.4l0.5,0.4c0.1,0.1,0.2,0.1,0.2,0l0.5-0.4l0.5,0.4v0.2H265z
	 M256.6,14.7c0.1,0.1,0.2,0.1,0.2,0l0.6-0.5c0,0,0.1-0.1,0.1-0.1l0.5,0.4c0.1,0.1,0.2,0.1,0.2,0l0.5-0.4l0.5,0.4
	c0.1,0.1,0.2,0.1,0.2,0L260,14l0.5,0.4c0.1,0.1,0.2,0.1,0.2,0l0.5-0.4l0.5,0.4c0.1,0.1,0.2,0.1,0.2,0l0.5-0.4l0.5,0.4
	c0.1,0.1,0.2,0.1,0.2,0l0.5-0.4l0.5,0.4c0.1,0.1,0.2,0.1,0.2,0l0.5-0.4l0.5,0.4v0.4l-0.4-0.3c-0.1-0.1-0.2-0.1-0.2,0l-0.5,0.4
	l-0.5-0.4c-0.1-0.1-0.2-0.1-0.2,0l-0.5,0.4l-0.5-0.4c-0.1-0.1-0.2-0.1-0.2,0l-0.5,0.4l-0.5-0.4c-0.1-0.1-0.2-0.1-0.2,0l-0.5,0.4
	l-0.5-0.4c-0.1-0.1-0.2-0.1-0.2,0l-0.5,0.4l-0.5-0.4c-0.1-0.1-0.2-0.1-0.2,0l-0.5,0.4l-0.5-0.4c-0.1-0.1-0.2-0.1-0.2,0l-0.5,0.4
	L256.6,14.7L256.6,14.7L256.6,14.7z M256.5,15.2l0.2,0.1c0.1,0.1,0.2,0.1,0.2,0l0.5-0.4l0.5,0.4c0.1,0.1,0.2,0.1,0.2,0l0.5-0.4
	l0.5,0.4c0.1,0.1,0.2,0.1,0.2,0l0.5-0.4l0.5,0.4c0.1,0.1,0.2,0.1,0.2,0l0.5-0.4l0.5,0.4c0.1,0.1,0.2,0.1,0.2,0l0.5-0.4l0.5,0.4
	c0.1,0.1,0.2,0.1,0.2,0l0.5-0.4l0.5,0.4c0.1,0.1,0.2,0.1,0.2,0l0.5-0.4l0.5,0.4v0.4l-0.4-0.3c-0.1-0.1-0.2-0.1-0.2,0l-0.5,0.4
	l-0.5-0.4c-0.1-0.1-0.2-0.1-0.2,0l-0.5,0.4l-0.5-0.4c-0.1-0.1-0.2-0.1-0.2,0l-0.5,0.4l-0.5-0.4c-0.1-0.1-0.2-0.1-0.2,0l-0.5,0.4
	l-0.5-0.4c-0.1-0.1-0.2-0.1-0.2,0l-0.5,0.4l-0.5-0.4c-0.1-0.1-0.2-0.1-0.2,0l-0.5,0.4l-0.5-0.4c-0.1-0.1-0.2-0.1-0.2,0l-0.5,0.4
	l-0.3-0.2V15.2z M265.6,11.3l-0.4-0.3c-0.1-0.1-0.2-0.1-0.2,0l-0.5,0.4l-0.5-0.4c-0.1-0.1-0.2-0.1-0.2,0l-0.5,0.4l-0.5-0.4
	c-0.1-0.1-0.2-0.1-0.2,0l-0.5,0.4l-0.5-0.4c-0.1-0.1-0.2-0.1-0.2,0l-0.5,0.4l-0.5-0.4c-0.1-0.1-0.2-0.1-0.2,0l-0.5,0.4l-0.5-0.4
	c-0.1-0.1-0.2-0.1-0.2,0l-0.5,0.4l-0.5-0.4c-0.1-0.1-0.2-0.1-0.2,0l-0.5,0.4l-0.5-0.4c-0.1-0.1-0.2-0.1-0.2,0l-0.5,0.4L255,11
	c-0.1,0-0.2-0.1-0.2,0l-0.3,0.2l-0.8-0.7l0.1,0l0.5,0.4c0.1,0.1,0.2,0.1,0.2,0l0.4-0.4l0.5,0.4c0.1,0.1,0.2,0.1,0.2,0l0.5-0.4
	l0.5,0.4c0.1,0.1,0.2,0.1,0.2,0l0.5-0.4l0.5,0.4c0.1,0.1,0.2,0.1,0.2,0l0.5-0.4l0.5,0.4c0.1,0.1,0.2,0.1,0.2,0l0.5-0.4l0.5,0.4
	c0.1,0.1,0.2,0.1,0.2,0l0.5-0.4l0.5,0.4c0.1,0.1,0.2,0.1,0.2,0l0.5-0.4l0.5,0.4c0.1,0.1,0.2,0.1,0.2,0l0.5-0.4l0.5,0.4
	c0.1,0.1,0.2,0.1,0.2,0l0.5-0.4l0.5,0.4V11.3z M254.9,11.4l0.6,0.4c0.1,0.1,0.2,0,0.2,0l0.5-0.4l0.5,0.4c0.1,0.1,0.2,0.1,0.2,0
	l0.5-0.4l0.5,0.4c0.1,0.1,0.2,0.1,0.2,0l0.5-0.4l0.5,0.4c0.1,0.1,0.2,0.1,0.2,0l0.5-0.4l0.5,0.4c0.1,0.1,0.2,0.1,0.2,0l0.5-0.4
	l0.5,0.4c0.1,0.1,0.2,0.1,0.2,0l0.5-0.4l0.5,0.4c0.1,0.1,0.2,0.1,0.2,0l0.5-0.4l0.5,0.4c0.1,0.1,0.2,0.1,0.2,0l0.5-0.4l0.5,0.4v0.4
	l-0.4-0.3c-0.1-0.1-0.2-0.1-0.2,0l-0.5,0.4l-0.5-0.4c-0.1-0.1-0.2-0.1-0.2,0l-0.5,0.4l-0.5-0.4c-0.1-0.1-0.2-0.1-0.2,0l-0.5,0.4
	l-0.5-0.4c-0.1-0.1-0.2-0.1-0.2,0l-0.5,0.4l-0.5-0.4c-0.1-0.1-0.2-0.1-0.2,0l-0.5,0.4l-0.5-0.4c-0.1-0.1-0.2-0.1-0.2,0l-0.5,0.4
	l-0.5-0.4c-0.1-0.1-0.2-0.1-0.2,0l-0.5,0.4l-0.5-0.4c-0.1-0.1-0.2-0.1-0.2,0l-0.4,0.4l-0.8-0.7L254.9,11.4z M256.1,12.3l0.5,0.4
	c0.1,0.1,0.2,0.1,0.2,0l0.5-0.4l0.5,0.4c0.1,0.1,0.2,0.1,0.2,0l0.5-0.4l0.5,0.4c0.1,0.1,0.2,0.1,0.2,0l0.5-0.4l0.5,0.4
	c0.1,0.1,0.2,0.1,0.2,0l0.5-0.4l0.5,0.4c0.1,0.1,0.2,0.1,0.2,0l0.5-0.4l0.5,0.4c0.1,0.1,0.2,0.1,0.2,0l0.5-0.4l0.5,0.4
	c0.1,0.1,0.2,0.1,0.2,0l0.5-0.4l0.5,0.4v0.4l-0.4-0.3c-0.1-0.1-0.2-0.1-0.2,0l-0.5,0.4l-0.5-0.4c-0.1-0.1-0.2-0.1-0.2,0l-0.5,0.4
	l-0.5-0.4c-0.1-0.1-0.2-0.1-0.2,0l-0.5,0.4l-0.5-0.4c-0.1-0.1-0.2-0.1-0.2,0l-0.5,0.4l-0.5-0.4c-0.1-0.1-0.2-0.1-0.2,0l-0.5,0.4
	l-0.5-0.4c-0.1-0.1-0.2-0.1-0.2,0l-0.5,0.4l-0.5-0.4c-0.1-0.1-0.2-0.1-0.2,0l-0.6,0.5l-0.9-0.8L256.1,12.3z M257.4,13.1l0.5,0.4
	c0.1,0.1,0.2,0.1,0.2,0l0.5-0.4l0.5,0.4c0.1,0.1,0.2,0.1,0.2,0l0.5-0.4l0.5,0.4c0.1,0.1,0.2,0.1,0.2,0l0.5-0.4l0.5,0.4
	c0.1,0.1,0.2,0.1,0.2,0l0.5-0.4l0.5,0.4c0.1,0.1,0.2,0.1,0.2,0l0.5-0.4l0.5,0.4c0.1,0.1,0.2,0.1,0.2,0l0.5-0.4l0.5,0.4v0.4l-0.4-0.3
	c-0.1-0.1-0.2-0.1-0.2,0l-0.5,0.4l-0.5-0.4c-0.1-0.1-0.2-0.1-0.2,0l-0.5,0.4l-0.5-0.4c-0.1-0.1-0.2-0.1-0.2,0l-0.5,0.4l-0.5-0.4
	c-0.1-0.1-0.2-0.1-0.2,0l-0.5,0.4l-0.5-0.4c-0.1-0.1-0.2-0.1-0.2,0l-0.5,0.4l-0.5-0.4c-0.1-0.1-0.2-0.1-0.2,0l-0.5,0.4l-0.5-0.4
	c-0.1-0.1-0.2-0.1-0.2,0l-0.1,0.1l-0.2-0.2L257.4,13.1z M265.6,9.9v0.5l-0.4-0.3c-0.1-0.1-0.2-0.1-0.2,0l-0.5,0.4l-0.5-0.4
	c-0.1-0.1-0.2-0.1-0.2,0l-0.5,0.4l-0.5-0.4c-0.1-0.1-0.2-0.1-0.2,0l-0.5,0.4l-0.5-0.4c-0.1-0.1-0.2-0.1-0.2,0l-0.5,0.4l-0.5-0.4
	c-0.1-0.1-0.2-0.1-0.2,0l-0.5,0.4l-0.5-0.4c-0.1-0.1-0.2-0.1-0.2,0l-0.5,0.4l-0.5-0.4c-0.1-0.1-0.2-0.1-0.2,0l-0.5,0.4l-0.5-0.4
	c-0.1-0.1-0.2-0.1-0.2,0l-0.5,0.4l-0.5-0.4c-0.1-0.1-0.2-0.1-0.2,0l-0.4,0.4l-0.5-0.4c-0.1,0-0.1-0.1-0.2,0l-0.3,0.2l-0.4-0.3H265.6
	z M244.1,14.4l-0.3-0.3l6.7-6.1l6.6,6l-0.3,0.3l-0.3-0.2h0l-5.9-5.3c-0.1-0.1-0.2-0.1-0.2,0l-5.9,5.3h0L244.1,14.4z M244.1,26.4h0.3
	v0.2h-0.3V26.4z M244.4,26h-0.3v-2.4h0.3V26z M244.4,23.3h-0.3v-0.2h0.3V23.3z M244.1,26.9h0.3v0.7h-0.3V26.9z M236.3,18.1
	c0.2,0,0.4,0,0.7,0.1c0.1,0,0.1,0,0.2,0c0,0,0.1-0.1,0.1-0.1l0,0c0-1.3,1.1-2.4,2.4-2.4c1,0,2,0.7,2.3,1.7c0,0.1,0.1,0.1,0.1,0.1
	c0.1,0,0.1,0,0.2-0.1c0.3-0.3,0.7-0.5,1.2-0.5c0.4,0,0.7,0.1,1,0.3v5.8h-0.3v-0.9c0-0.4-0.3-0.7-0.7-0.7c-0.4,0-0.7,0.3-0.7,0.7v0.9
	h-0.3v-0.9c0-0.4-0.3-0.7-0.7-0.7c-0.4,0-0.7,0.3-0.7,0.7v0.9h-0.3v-0.9c0-0.4-0.3-0.7-0.7-0.7c-0.4,0-0.7,0.3-0.7,0.7v0.9h-0.3
	v-0.9c0-0.4-0.3-0.7-0.7-0.7c-0.4,0-0.7,0.3-0.7,0.7v0.9h-0.3v-0.9c0-0.4-0.3-0.7-0.7-0.7s-0.7,0.3-0.7,0.7v0.9h-0.3v-0.9
	c0-0.4-0.3-0.7-0.7-0.7c-0.1,0-0.2,0-0.3,0.1v-1.2C234.3,19,235.2,18.1,236.3,18.1 M242.3,26.4h0.3v0.2h-0.3V26.4z M242.7,26h-0.3
	v-2.4h0.3V26z M242.7,23.3h-0.3v-0.2h0.3V23.3z M242.3,26.9h0.3v0.7h-0.3V26.9z M240.6,26.4h0.3v0.2h-0.3V26.4z M240.9,26h-0.3v-2.4
	h0.3V26z M240.9,23.3h-0.3v-0.2h0.3V23.3z M240.6,26.9h0.3v0.7h-0.3V26.9z M238.8,26.4h0.3v0.2h-0.3V26.4z M239.2,26h-0.3v-2.4h0.3
	V26z M239.2,23.3h-0.3v-0.2h0.3V23.3z M238.8,26.9h0.3v0.7h-0.3V26.9z M237.1,26.4h0.3v0.2h-0.3V26.4z M237.4,26h-0.3v-2.4h0.3V26z
	 M237.4,23.3h-0.3v-0.2h0.3V23.3z M237.1,26.9h0.3v0.7h-0.3V26.9z M235.3,26.4h0.3v0.2h-0.3V26.4z M235.7,26h-0.3v-2.4h0.3V26z
	 M235.7,23.3h-0.3v-0.2h0.3V23.3z M235.3,26.9h0.3v0.7h-0.3V26.9z M212.5,21h-6.4l-6.5-3.6c-0.1,0-0.1,0-0.2,0L193,21h-6.4l0.6-1.4
	l2.1-5.5h0.8h1.5h1.7h12.4h1.7h2.3L212.5,21z M200.9,22.9h-2.6c-0.1,0-0.2,0.1-0.2,0.2v4.5h-2.7v-6.3l4.2-2.3l4.2,2.3v6.3h-2.7v-4.5
	C201.1,23,201,22.9,200.9,22.9 M199.7,18.6c-0.1,0-0.1,0-0.2,0l-0.1,0.1l-4.3,2.4c0,0,0,0,0,0l-1.5,0.8l-0.3-0.6l6.3-3.5l6.3,3.5
	l-0.3,0.6L199.7,18.6z M185.4,19.3c0.5,0.2,0.9,0.3,1.4,0.3l-0.6,1.4c0,0,0,0,0,0c0,0,0,0,0,0v0c0,0,0,0,0,0c0,0,0,0,0,0
	c0,0,0,0,0,0c0,0,0,0,0,0c0,0,0,0,0,0c0,0,0,0,0,0c0,0,0,0,0,0c0,0,0,0,0.1,0h1.2v6.3h-3.1C184.6,26.8,184.5,23,185.4,19.3
	 M205.6,12.3h2.1v0.2h-0.2h-1.7h-0.2V12.3z M205.9,12.8h1.4v0.9h-1.4V12.8z M191.5,12.3h2.1v0.2h-0.2h-1.7h-0.2V12.3z M191.8,12.8
	h1.4v0.9h-1.4V12.8z M151.2,17.8l7.2,3.3l-0.3,0.3l-0.8-0.4h0l-6.1-2.8c0,0-0.1,0-0.1,0l-6,2.8h0l0,0l-0.8,0.4l-0.3-0.3L151.2,17.8z
	 M133.1,6.7h2.8v0.3h-0.1h-2.6h-0.1V6.7z M133.4,7.4h2.3v2l-2.3,1V7.4z M130.3,12.7l-0.3-0.3l10.4-4.8l10.4,4.8l-0.3,0.3L140.5,8
	c0,0,0,0-0.1,0c0,0,0,0-0.1,0l-8.7,4c0,0,0,0,0,0L130.3,12.7z M140.5,8.4l8.4,3.9v5.9h-16.9v-5.8L140.5,8.4z M131.9,18.5h16.9v0
	l-5.2,2.4c0,0-0.1,0-0.1,0.1h-12.4L131.9,18.5z M100.2,17.8c0.6,0.2,1.1,0.7,1.5,1.2c0,0,0.1,0.1,0.1,0.1c0,0,0.1,0,0.1,0
	c0.6-0.4,1.3-0.5,2-0.3c0.5,0.2,0.9,0.6,1.1,1.1c0.2,0.5,0.2,1,0,1.5c0,0,0,0.1,0,0.1h-0.7h-0.9h-0.9h-0.9h-0.9h-0.9H99h-0.9h-0.7
	V18C98.3,17.5,99.3,17.4,100.2,17.8 M91.8,9.9l5.5,3.6h-4.5l-4.9-3.6H91.8z M80.6,9.9h3.9l-4.9,3.6h-4.5L80.6,9.9z M74.7,13.8h5
	c0,0,0.1,0,0.1,0l6.5-4.8l6.5,4.8c0,0,0.1,0,0.1,0h5v0.3h-0.5h-4.7l-6.3-4.6c-0.1,0-0.1,0-0.2,0l-6.3,4.6h-4.6h-0.5V13.8z M69,19.8
	c0.2,0,0.4,0,0.5,0.1c0,0,0.1,0,0.1,0c0,0,0.1-0.1,0.1-0.1c0.2-1.5,1.5-2.6,3-2.6c0.8,0,1.6,0.3,2.2,0.9v3.4h-0.7h-0.9h-0.9h-0.9
	h-0.9H70h-0.9h-0.9h-0.9H67C67.2,20.6,68,19.8,69,19.8 M41.7,18v-2c0-0.1-0.1-0.2-0.2-0.2c-0.6-0.1-1.2-0.2-1.7-0.6
	c-0.1,0-0.1,0-0.2,0c-0.4,0.3-0.9,0.4-1.4,0.4c-1.4,0-2.5-1.1-2.5-2.5c0-1.2,0.8-2.2,1.9-2.4c0.1,0,0.1-0.1,0.1-0.1
	c0.1-0.6,0.4-1.3,0.9-1.8c0.1-0.1,0.1-0.2,0-0.2c-0.3-0.3-0.4-0.6-0.4-0.9c0-0.7,0.6-1.3,1.3-1.3c0.6,0,1.1,0.4,1.3,0.9
	c0,0.1,0.1,0.1,0.2,0.1c0.7-0.1,1.4-0.1,2,0c0.1,0,0.1,0,0.2,0c0.5-0.4,1.1-0.7,1.7-0.7c1.4,0,2.5,1.1,2.5,2.5
	c0,0.7-0.3,1.3-0.7,1.8c0,0-0.1,0.1,0,0.1c0,0.1,0,0.1,0.1,0.1c0.5,0.3,0.9,0.9,0.9,1.5c0,0.8-0.6,1.5-1.3,1.7c0,0-0.1,0-0.1,0.1
	c0,0,0,0.1,0,0.1c0.1,0.2,0.1,0.4,0.1,0.5c0,0.8-0.7,1.5-1.5,1.5c-0.5,0-1-0.3-1.3-0.7c0-0.1-0.1-0.1-0.2-0.1
	c-0.1,0-0.1,0.1-0.1,0.2v2.6l-1-0.4L41.7,18z M38.4,17l4.2,1.8l0.6,0.3l2.2,1l-0.2,0.6l-6.7-2.9c0,0,0,0-0.1,0c0,0,0,0-0.1,0
	l-6.1,2.6l-0.6,0.3L31.3,20L38.4,17z M27.6,4.7h3V5h-0.2h-2.6h-0.2V4.7z M27.9,5.4h2.3V7h-2.3V5.4z M12.2,7.4h15.6h2.6h2l2.6,4.2H34
	H10.5H9.6L12.2,7.4z M10.7,11.9h23.2v6.6L31,19.8c-0.1,0-0.1,0.1-0.1,0.2l0.4,0.9c0,0,0.1,0.1,0.1,0.1c0,0,0.1,0,0.1,0l0.6-0.2v6.9
	h-5.3v-6.8l0.5,0.3c0,0,0.1,0,0.1,0c0.1,0,0.1,0,0.1-0.1l0.5-0.8c0,0,0-0.1,0-0.1c0,0,0-0.1-0.1-0.1l-5.6-3.4c-0.1,0-0.1,0-0.2,0
	l-5.6,3.4c0,0-0.1,0.1-0.1,0.1c0,0,0,0.1,0,0.1L17,21c0,0.1,0.2,0.1,0.2,0.1l0.5-0.3v6.8h-5.4c0.1-0.2,0.1-0.5,0.1-0.7
	c0-1.1-0.8-2-1.8-2.2V11.9z M17.2,20.7l-0.3-0.5l5.3-3.2l5.3,3.2l-0.3,0.5l-4.9-3c-0.1,0-0.1,0-0.2,0L17.2,20.7z M10.5,27.6h-5
	c-0.1-0.2-0.1-0.4-0.1-0.6c0-1.1,0.9-1.9,1.9-1.9c0.5,0,0.9,0.2,1.3,0.5c0.1,0.1,0.2,0.1,0.2,0c0.4-0.4,0.9-0.6,1.4-0.6
	c1.1,0,1.9,0.9,1.9,1.9c0,0.2,0,0.5-0.1,0.7H10.5z M20.9,22.3h2.8v5.3h-2.8V22.3z M24,27.6v-5.5c0-0.1-0.1-0.2-0.2-0.2h-3.1
	c-0.1,0-0.2,0.1-0.2,0.2v5.5h-2.4v-7l4.2-2.5l4.2,2.5v7H24z M42.6,23.9h-8.4v-0.3h8.4V23.9z M34.2,23.1h8.4v0.3h-8.4V23.1z
	 M42.6,24.5h-8.4v-0.3h8.4V24.5z M42.6,25.2h-8.4v-0.3h8.4V25.2z M42.6,25.8h-8.4v-0.3h8.4V25.8z M42.6,26.4h-8.4v-0.3h8.4V26.4z
	 M42.6,22.7h-8.4v-0.3h8.4V22.7z M34.2,26.7h8.4V27h-8.4V26.7z M42.6,22.1h-8.4v-0.3h8.4V22.1z M34.2,27.3h8.4v0.3h-8.4V27.3z
	 M42.9,27.6v-5.9c0-0.1-0.1-0.2-0.2-0.2H34c-0.1,0-0.2,0.1-0.2,0.2v5.9h-1.4v-7l5.9-2.5l5.9,2.5v7H42.9z M66.6,21.8h0.5v5.7h-0.5
	V21.8z M67.5,21.8H68v5.7h-0.5V21.8z M68.4,21.8h0.5v5.7h-0.5V21.8z M69.3,21.8h0.5v5.7h-0.5V21.8z M70.1,21.8h0.5v5.7h-0.5V21.8z
	 M71,21.8h0.5v5.7H71V21.8z M71.9,21.8h0.5v5.7h-0.5V21.8z M72.7,21.8h0.5v5.7h-0.5V21.8z M73.6,21.8h0.5v5.7h-0.5V21.8z M74.5,21.8
	H75v5.7h-0.5V21.8z M75.4,21.7v-7.1h4.5c0,0,0.1,0,0.1,0l6.2-4.6l6.2,4.6c0,0,0.1,0,0.1,0h4.6v7.1v5.9h-7.6v-0.3
	c0-0.1-0.1-0.2-0.2-0.2h-0.2v-0.3c0-0.1-0.1-0.2-0.2-0.2h-0.3v-5.1h0.4c0.1,0,0.2-0.1,0.2-0.2v-0.5c0-0.1-0.1-0.2-0.2-0.2h-6.1
	c-0.1,0-0.2,0.1-0.2,0.2v0.5c0,0.1,0.1,0.2,0.2,0.2h0.4v5.1h-0.3c-0.1,0-0.2,0.1-0.2,0.2v0.3h-0.2c-0.1,0-0.2,0.1-0.2,0.2v0.3h-7.4
	V21.7z M88.6,21.2h-4.9h-0.4V21H89v0.2H88.6z M83.9,21.5h4.5v5.1h-4.5V21.5z M83.7,26.9h4.9h0.3v0.2h-5.4v-0.2H83.7z M83.1,27.6
	v-0.2h0.2H89h0.2v0.2H83.1z M97.5,21.8H98v5.7h-0.5V21.8z M98.3,21.8h0.5v5.7h-0.5V21.8z M99.2,21.8h0.5v5.7h-0.5V21.8z M100.1,21.8
	h0.5v5.7h-0.5V21.8z M101,21.8h0.5v5.7H101V21.8z M101.8,21.8h0.5v5.7h-0.5V21.8z M102.7,21.8h0.5v5.7h-0.5V21.8z M103.6,21.8h0.5
	v5.7h-0.5V21.8z M104.4,21.8h0.5v5.7h-0.5V21.8z M105.3,21.8h0.5v5.7h-0.5V21.8z M126.8,27.6v-2.8c0-0.1-0.1-0.2-0.2-0.2h-1.8
	l1.5-2.5c0-0.1,0-0.1,0-0.2c0-0.1-0.1-0.1-0.2-0.1h-0.6l1.4-2.3c0-0.1,0-0.1,0-0.2c0-0.1-0.1-0.1-0.2-0.1h-0.4l0.8-1.5l0.8,1.5h-0.4
	c-0.1,0-0.1,0-0.2,0.1c0,0.1,0,0.1,0,0.2l1.4,2.3h-0.6c-0.1,0-0.1,0-0.2,0.1c0,0.1,0,0.1,0,0.2l1.5,2.5h-1.8c-0.1,0-0.2,0.1-0.2,0.2
	v2.8H126.8z M131.9,21.3h11.8l0.4,0.4c0.1,0.1,0.1,0.1,0.2,0l0.7-0.3v6.2h-7.9V23c0-0.1-0.1-0.2-0.2-0.2h-2.5
	c-0.1,0-0.2,0.1-0.2,0.2v4.6h-2.3V21.3z M134.5,23.2h2.2v4.4h-2.2V23.2z M147,23.2h8.4v4.4H147V23.2z M155.7,27.6V23
	c0-0.1-0.1-0.2-0.2-0.2h-8.7c-0.1,0-0.2,0.1-0.2,0.2v4.6h-1.3v-6.3l5.9-2.7l5.9,2.7v6.3H155.7z M183.8,27.6c0-0.1,0-0.3,0-0.6v0
	c0-2.7-1.4-4.9-1.7-5.3c0,0,0-0.1-0.1-0.1c-0.1-0.1-0.2,0-0.2,0c-0.5,0.6-1.2,1-2,1c-1.4,0-2.6-1.1-2.6-2.5c0-0.1,0-0.1-0.1-0.1
	c-0.6-0.3-0.9-0.9-0.9-1.6c0-1,0.8-1.9,1.9-1.9c0.6,0,1.2,0.3,1.6,0.9c0,0.1,0.1,0.1,0.1,0.1c1.4,0,2.6,1.2,2.6,2.6
	c0,0.4-0.1,0.8-0.3,1.2c0,0.1,0,0.2,0.1,0.2c0,0,0,0,0,0c0.2,0.2,0.8,1,1.4,2.9c0,0.1,0.1,0.1,0.2,0.1c0.1,0,0.2-0.1,0.2-0.2
	c0.2-2.1,0.5-3.9,0.9-5.6c0-0.1,0-0.1-0.1-0.2c-0.6-0.5-1-1.1-1.3-1.8c0-0.1-0.1-0.1-0.2-0.1c-0.1,0-0.1,0-0.2,0
	c-1,0-1.8-0.8-1.8-1.8c0,0,0-0.1,0-0.1c0-0.1,0-0.1-0.1-0.2c-0.9-0.6-1.4-1.6-1.4-2.6c0-1.7,1.4-3.1,3.1-3.1c1,0,1.9,0.5,2.5,1.2
	c0,0,0.1,0.1,0.1,0.1c0.1,0,0.1,0,0.1-0.1c0.4-0.4,1-0.7,1.5-0.7c1.1,0,2.1,0.9,2.1,2.1c0,0.5-0.1,0.9-0.4,1.2c0,0,0,0.1,0,0.1
	c0,0,0,0.1,0.1,0.1c0.3,0.2,0.6,0.5,0.8,0.8h-0.6c-0.1,0-0.1,0-0.2,0.1l-2.1,5.5c-0.6,0-1.1-0.1-1.6-0.4c0,0-0.1,0-0.2,0
	c0,0-0.1,0.1-0.1,0.1c-0.9,3.8-0.9,7.7-0.8,8.6H183.8z M188,21.3h5l0.5,0.8c0,0,0.1,0.1,0.1,0.1c0,0,0,0,0,0c0,0,0.1,0,0.1,0
	l1.4-0.8v6.1H188V21.3z M198.4,23.2h2.3v4.4h-2.3V23.2z M204.1,27.6v-6.1l1.4,0.8c0.1,0,0.2,0,0.2-0.1l0.5-0.8h5v6.3H204.1z
	 M234.3,27.6v-5.7c0-0.2,0.2-0.3,0.3-0.3c0.2,0,0.3,0.2,0.3,0.3v1v0.5v2.7v0.5v0.9H234.3z M236,27.6v-0.9v-0.5v-2.7V23v-1
	c0-0.2,0.2-0.3,0.3-0.3s0.3,0.2,0.3,0.3v1v0.5v2.7v0.5v0.9H236z M237.8,27.6v-0.9v-0.5v-2.7V23v-1c0-0.2,0.2-0.3,0.3-0.3
	c0.2,0,0.3,0.2,0.3,0.3v1v0.5v2.7v0.5v0.9H237.8z M239.5,27.6v-0.9v-0.5v-2.7V23v-1c0-0.2,0.2-0.3,0.3-0.3s0.3,0.2,0.3,0.3v1v0.5
	v2.7v0.5v0.9H239.5z M241.3,27.6v-0.9v-0.5v-2.7V23v-1c0-0.2,0.2-0.3,0.3-0.3c0.2,0,0.3,0.2,0.3,0.3v1v0.5v2.7v0.5v0.9H241.3z
	 M243,27.6v-0.9v-0.5v-2.7V23v-1c0-0.2,0.2-0.3,0.3-0.3c0.2,0,0.3,0.2,0.3,0.3v1v0.5v2.7v0.5v0.9H243z M244.8,26.7v-0.5v-2.7V23
	v-8.7l5.7-5.2l5.7,5.2v2.3v11.1h-11.4V26.7z M256.5,16.7h8.4v1.9v0v9h-0.1v-0.4c0-0.1-0.1-0.2-0.2-0.2h-0.1v-0.5
	c0-0.1-0.1-0.2-0.2-0.2h-0.2v-4.4c0-0.1-0.1-0.2-0.2-0.2h-2.6c-0.1,0-0.2,0.1-0.2,0.2v4.4H261c-0.1,0-0.2,0.1-0.2,0.2V27h-0.1
	c-0.1,0-0.2,0.1-0.2,0.2v0.4h-4.1V16.7z M263.8,26.3h-2.3v-4.2h2.3V26.3z M261.4,26.6h2.6h0.2V27h-3v-0.3H261.4z M260.9,27.6v-0.3
	h0.1h3.3h0.1v0.3H260.9z M265.2,26.9h0.3v0.7h-0.3V26.9z M265.9,27.6v-0.9v-0.5v-2.7V23v-1c0-0.2,0.2-0.3,0.3-0.3
	c0.2,0,0.3,0.2,0.3,0.3v1v0.5v2.7v0.5v0.9H265.9z M267.7,27.6v-0.9v-0.5v-2.7V23v-1c0-0.2,0.2-0.3,0.3-0.3c0.2,0,0.3,0.2,0.3,0.3v1
	v0.5v2.7v0.5v0.9H267.7z M269.4,27.6v-0.9v-0.5v-2.7V23v-1c0-0.2,0.2-0.3,0.3-0.3c0.2,0,0.3,0.2,0.3,0.3v1v0.5v2.7v0.5v0.9H269.4z
	 M271.1,27.6v-0.9v-0.5v-2.7V23v-1c0-0.2,0.2-0.3,0.3-0.3c0.2,0,0.3,0.2,0.3,0.3v1v0.5v2.7v0.5v0.9H271.1z M272.9,27.6v-0.9v-0.5
	v-2.7V23v-1c0-0.2,0.2-0.3,0.3-0.3c0.2,0,0.3,0.2,0.3,0.3v1v0.5v2.7v0.5v0.9H272.9z M274.6,27.6v-0.9v-0.5v-2.7V23v-1
	c0-0.2,0.2-0.3,0.3-0.3s0.3,0.2,0.3,0.3v5.7H274.6z"/>
<path class="st0" d="M5.9,31.6H4.5c-0.1,0-0.2,0.1-0.2,0.2c0,0.1,0.1,0.2,0.2,0.2h1.4c0.1,0,0.2-0.1,0.2-0.2
	C6.2,31.7,6.1,31.6,5.9,31.6"/>
<path class="st0" d="M87.3,31.6h-2.8c-0.1,0-0.2,0.1-0.2,0.2c0,0.1,0.1,0.2,0.2,0.2h2.8c0.1,0,0.2-0.1,0.2-0.2
	C87.5,31.7,87.4,31.6,87.3,31.6"/>
<path class="st0" d="M65.1,31.6h-2.8c-0.1,0-0.2,0.1-0.2,0.2c0,0.1,0.1,0.2,0.2,0.2h2.8c0.1,0,0.2-0.1,0.2-0.2
	C65.3,31.7,65.2,31.6,65.1,31.6"/>
<path class="st0" d="M72.5,31.6h-2.8c-0.1,0-0.2,0.1-0.2,0.2c0,0.1,0.1,0.2,0.2,0.2h2.8c0.1,0,0.2-0.1,0.2-0.2
	C72.7,31.7,72.6,31.6,72.5,31.6"/>
<path class="st0" d="M79.9,31.6h-2.8c-0.1,0-0.2,0.1-0.2,0.2c0,0.1,0.1,0.2,0.2,0.2h2.8c0.1,0,0.2-0.1,0.2-0.2
	C80.1,31.7,80,31.6,79.9,31.6"/>
<path class="st0" d="M109.4,31.6h-2.8c-0.1,0-0.2,0.1-0.2,0.2c0,0.1,0.1,0.2,0.2,0.2h2.8c0.1,0,0.2-0.1,0.2-0.2
	C109.7,31.7,109.6,31.6,109.4,31.6"/>
<path class="st0" d="M102,31.6h-2.8c-0.1,0-0.2,0.1-0.2,0.2c0,0.1,0.1,0.2,0.2,0.2h2.8c0.1,0,0.2-0.1,0.2-0.2
	C102.3,31.7,102.2,31.6,102,31.6"/>
<path class="st0" d="M94.7,31.6h-2.8c-0.1,0-0.2,0.1-0.2,0.2c0,0.1,0.1,0.2,0.2,0.2h2.8c0.1,0,0.2-0.1,0.2-0.2
	C94.9,31.7,94.8,31.6,94.7,31.6"/>
<path class="st0" d="M116.8,31.6h-2.8c-0.1,0-0.2,0.1-0.2,0.2c0,0.1,0.1,0.2,0.2,0.2h2.8c0.1,0,0.2-0.1,0.2-0.2
	C117.1,31.7,117,31.6,116.8,31.6"/>
<path class="st0" d="M13.3,31.6h-2.8c-0.1,0-0.2,0.1-0.2,0.2c0,0.1,0.1,0.2,0.2,0.2h2.8c0.1,0,0.2-0.1,0.2-0.2
	C13.6,31.7,13.5,31.6,13.3,31.6"/>
<path class="st0" d="M57.7,31.6h-2.8c-0.1,0-0.2,0.1-0.2,0.2c0,0.1,0.1,0.2,0.2,0.2h2.8c0.1,0,0.2-0.1,0.2-0.2
	C57.9,31.7,57.8,31.6,57.7,31.6"/>
<path class="st0" d="M28.1,31.6h-2.8c-0.1,0-0.2,0.1-0.2,0.2c0,0.1,0.1,0.2,0.2,0.2h2.8c0.1,0,0.2-0.1,0.2-0.2
	C28.4,31.7,28.2,31.6,28.1,31.6"/>
<path class="st0" d="M124.2,31.6h-2.8c-0.1,0-0.2,0.1-0.2,0.2c0,0.1,0.1,0.2,0.2,0.2h2.8c0.1,0,0.2-0.1,0.2-0.2
	C124.5,31.7,124.3,31.6,124.2,31.6"/>
<path class="st0" d="M20.7,31.6H18c-0.1,0-0.2,0.1-0.2,0.2c0,0.1,0.1,0.2,0.2,0.2h2.8c0.1,0,0.2-0.1,0.2-0.2
	C21,31.7,20.9,31.6,20.7,31.6"/>
<path class="st0" d="M50.3,31.6h-2.8c-0.1,0-0.2,0.1-0.2,0.2c0,0.1,0.1,0.2,0.2,0.2h2.8c0.1,0,0.2-0.1,0.2-0.2
	C50.5,31.7,50.4,31.6,50.3,31.6"/>
<path class="st0" d="M35.5,31.6h-2.8c-0.1,0-0.2,0.1-0.2,0.2c0,0.1,0.1,0.2,0.2,0.2h2.8c0.1,0,0.2-0.1,0.2-0.2
	C35.7,31.7,35.6,31.6,35.5,31.6"/>
<path class="st0" d="M42.9,31.6h-2.8c-0.1,0-0.2,0.1-0.2,0.2c0,0.1,0.1,0.2,0.2,0.2h2.8c0.1,0,0.2-0.1,0.2-0.2
	C43.1,31.7,43,31.6,42.9,31.6"/>
<path class="st0" d="M264.7,31.6h-2.8c-0.1,0-0.2,0.1-0.2,0.2c0,0.1,0.1,0.2,0.2,0.2h2.8c0.1,0,0.2-0.1,0.2-0.2
	C264.9,31.7,264.8,31.6,264.7,31.6"/>
<path class="st0" d="M227.7,31.6h-2.8c-0.1,0-0.2,0.1-0.2,0.2c0,0.1,0.1,0.2,0.2,0.2h2.8c0.1,0,0.2-0.1,0.2-0.2
	C227.9,31.7,227.8,31.6,227.7,31.6"/>
<path class="st0" d="M220.3,31.6h-2.8c-0.1,0-0.2,0.1-0.2,0.2c0,0.1,0.1,0.2,0.2,0.2h2.8c0.1,0,0.2-0.1,0.2-0.2
	C220.6,31.7,220.5,31.6,220.3,31.6"/>
<path class="st0" d="M272.1,31.6h-2.8c-0.1,0-0.2,0.1-0.2,0.2c0,0.1,0.1,0.2,0.2,0.2h2.8c0.1,0,0.2-0.1,0.2-0.2
	C272.3,31.7,272.2,31.6,272.1,31.6"/>
<path class="st0" d="M235.1,31.6h-2.8c-0.1,0-0.2,0.1-0.2,0.2c0,0.1,0.1,0.2,0.2,0.2h2.8c0.1,0,0.2-0.1,0.2-0.2
	C235.3,31.7,235.2,31.6,235.1,31.6"/>
<path class="st0" d="M249.9,31.6h-2.8c-0.1,0-0.2,0.1-0.2,0.2c0,0.1,0.1,0.2,0.2,0.2h2.8c0.1,0,0.2-0.1,0.2-0.2
	C250.1,31.7,250,31.6,249.9,31.6"/>
<path class="st0" d="M131.6,31.6h-2.8c-0.1,0-0.2,0.1-0.2,0.2c0,0.1,0.1,0.2,0.2,0.2h2.8c0.1,0,0.2-0.1,0.2-0.2
	C131.8,31.7,131.7,31.6,131.6,31.6"/>
<path class="st0" d="M257.3,31.6h-2.8c-0.1,0-0.2,0.1-0.2,0.2c0,0.1,0.1,0.2,0.2,0.2h2.8c0.1,0,0.2-0.1,0.2-0.2
	C257.5,31.7,257.4,31.6,257.3,31.6"/>
<path class="st0" d="M242.5,31.6h-2.8c-0.1,0-0.2,0.1-0.2,0.2c0,0.1,0.1,0.2,0.2,0.2h2.8c0.1,0,0.2-0.1,0.2-0.2
	C242.7,31.7,242.6,31.6,242.5,31.6"/>
<path class="st0" d="M205.5,31.6h-2.8c-0.1,0-0.2,0.1-0.2,0.2c0,0.1,0.1,0.2,0.2,0.2h2.8c0.1,0,0.2-0.1,0.2-0.2
	C205.8,31.7,205.7,31.6,205.5,31.6"/>
<path class="st0" d="M212.9,31.6h-2.8c-0.1,0-0.2,0.1-0.2,0.2c0,0.1,0.1,0.2,0.2,0.2h2.8c0.1,0,0.2-0.1,0.2-0.2
	C213.2,31.7,213.1,31.6,212.9,31.6"/>
<path class="st0" d="M146.4,31.6h-2.8c-0.1,0-0.2,0.1-0.2,0.2c0,0.1,0.1,0.2,0.2,0.2h2.8c0.1,0,0.2-0.1,0.2-0.2
	C146.6,31.7,146.5,31.6,146.4,31.6"/>
<path class="st0" d="M153.8,31.6H151c-0.1,0-0.2,0.1-0.2,0.2c0,0.1,0.1,0.2,0.2,0.2h2.8c0.1,0,0.2-0.1,0.2-0.2
	C154,31.7,153.9,31.6,153.8,31.6"/>
<path class="st0" d="M139,31.6h-2.8c-0.1,0-0.2,0.1-0.2,0.2c0,0.1,0.1,0.2,0.2,0.2h2.8c0.1,0,0.2-0.1,0.2-0.2
	C139.2,31.7,139.1,31.6,139,31.6"/>
<path class="st0" d="M161.2,31.6h-2.8c-0.1,0-0.2,0.1-0.2,0.2c0,0.1,0.1,0.2,0.2,0.2h2.8c0.1,0,0.2-0.1,0.2-0.2
	C161.4,31.7,161.3,31.6,161.2,31.6"/>
<path class="st0" d="M176,31.6h-2.8c-0.1,0-0.2,0.1-0.2,0.2c0,0.1,0.1,0.2,0.2,0.2h2.8c0.1,0,0.2-0.1,0.2-0.2
	C176.2,31.7,176.1,31.6,176,31.6"/>
<path class="st0" d="M168.6,31.6h-2.8c-0.1,0-0.2,0.1-0.2,0.2c0,0.1,0.1,0.2,0.2,0.2h2.8c0.1,0,0.2-0.1,0.2-0.2
	C168.8,31.7,168.7,31.6,168.6,31.6"/>
<path class="st0" d="M190.8,31.6H188c-0.1,0-0.2,0.1-0.2,0.2c0,0.1,0.1,0.2,0.2,0.2h2.8c0.1,0,0.2-0.1,0.2-0.2
	C191,31.7,190.9,31.6,190.8,31.6"/>
<path class="st0" d="M183.4,31.6h-2.8c-0.1,0-0.2,0.1-0.2,0.2c0,0.1,0.1,0.2,0.2,0.2h2.8c0.1,0,0.2-0.1,0.2-0.2
	C183.6,31.7,183.5,31.6,183.4,31.6"/>
<path class="st0" d="M198.1,31.6h-2.8c-0.1,0-0.2,0.1-0.2,0.2c0,0.1,0.1,0.2,0.2,0.2h2.8c0.1,0,0.2-0.1,0.2-0.2
	C198.4,31.7,198.3,31.6,198.1,31.6"/>
<path class="st0" d="M278.1,31.6h-1.4c-0.1,0-0.2,0.1-0.2,0.2c0,0.1,0.1,0.2,0.2,0.2h1.4c0.1,0,0.2-0.1,0.2-0.2
	C278.3,31.7,278.2,31.6,278.1,31.6"/>
</svg>
