<svg id="Layer_1" data-name="Layer 1" xmlns="http://www.w3.org/2000/svg" viewBox="0 0 606.87 130.74"><defs><style>.cls-1{fill:#11264b}</style></defs><path class="cls-1" d="M107.2 41v94.51H91.54l-1.9-11.49c-8.56 8.65-20.5 13.84-34.27 13.84-28.15 0-49.21-21.28-49.21-49.61s21.06-49.5 49.21-49.5c13.93 0 26 5.26 34.57 14.07L92.21 41zM87.73 88.28c0-17.81-13-31-30.83-31s-31 13.31-31 31 13.14 31 31 31 30.83-13.18 30.83-31zM221.63 7.2v128.39h-14.7l-2.5-10.72a47.44 47.44 0 01-33.36 13.07c-28.58 0-49.13-21.28-49.13-49.61s20.55-49.55 49.13-49.55a47.81 47.81 0 0131.13 11V7.2zm-49 112.14c17.82 0 31-13.44 31-31s-13.14-31-31-31-30.83 13.2-30.83 31 13 31 30.83 31zM297.82 117.94v17.65h-14.44c-20.7 0-33.48-12.78-33.48-33.66V57.72H233V54l32.87-35h3.31v22.08h28.12v16.64h-28v42.68c0 11.27 6.27 17.54 17.71 17.54zM367.74 40.55V58.9h-10.26c-16.06 0-24.08 9.17-24.08 26.29v50.4H314V41.08h13.14L330.4 54c6.76-9 16-13.43 28.94-13.43zM471.69 41v94.51H456l-1.89-11.49c-8.56 8.65-20.5 13.84-34.28 13.84-28.15 0-49.2-21.28-49.2-49.61s21.05-49.5 49.2-49.5c13.94 0 26 5.26 34.57 14.07L456.7 41zm-19.47 47.28c0-17.81-13-31-30.84-31s-30.95 13.31-30.95 31 13.14 31 30.95 31 30.84-13.18 30.84-31zM519.86 95.27h-11.78v40.32h-19.43V7.2h19.43v70.42H520l25.51-36.54h23l-32 45.36 35.4 49.15h-23.73z" transform="translate(-6.16 -7.2)"/><circle cx="591.27" cy="115.14" r="15.6" fill="#ff6b4a"/></svg>