<svg width="98" height="124" viewBox="0 0 98 124" fill="none" xmlns="http://www.w3.org/2000/svg">
<g filter="url(#filter0_d)">
<path d="M48.5564 72L64.1127 87.5563L48.5564 115.5L33 87.5563L48.5564 72Z" fill="white"/>
<path d="M49 90C73.8528 90 94 69.8528 94 45C94 20.1472 73.8528 0 49 0C24.1472 0 4 20.1472 4 45C4 69.8528 24.1472 90 49 90Z" fill="white"/>
</g>
<path fill-rule="evenodd" clip-rule="evenodd" d="M68.1654 35.9706V61.7647H75.1348C75.1348 56.0588 75.1348 37.4412 75.1348 32.8824C67.0727 28.7647 59.0106 24.6176 50.9189 20.5L50.9485 27.1471L68.1654 35.9706Z" fill="#2A466C"/>
<path fill-rule="evenodd" clip-rule="evenodd" d="M68.165 35.9706V61.7647H75.1345C75.1345 56.0588 75.1345 37.4411 75.1345 32.8823" fill="#2A466C"/>
<path fill-rule="evenodd" clip-rule="evenodd" d="M56.7374 41.147V61.7647H63.5297V38.4411L50.9492 31.3823L50.9787 38.5294L56.7374 41.147Z" fill="#2F4269"/>
<path fill-rule="evenodd" clip-rule="evenodd" d="M56.7373 41.147V61.7647H63.5296V38.4412" fill="#2A466C"/>
<path fill-rule="evenodd" clip-rule="evenodd" d="M41.2331 61.7647V41.147L47.0213 38.5294V31.3823L34.2637 38.4411V61.7647H41.2331Z" fill="#2F4269"/>
<path fill-rule="evenodd" clip-rule="evenodd" d="M34.2637 38.4412V61.7647H41.2331V41.147" fill="#2A466C"/>
<path fill-rule="evenodd" clip-rule="evenodd" d="M29.8337 61.7646V35.9705L34.2634 33.7058L47.0506 27.1764L47.0801 20.5293C39.018 24.6469 30.9559 28.794 22.8643 32.9116V61.794H29.8337V61.7646Z" fill="#2A466C"/>
<path fill-rule="evenodd" clip-rule="evenodd" d="M22.8643 32.9119V61.7648H29.8337V35.9707" fill="#2A466C"/>
<defs>
<filter id="filter0_d" x="0" y="0" width="98" height="123.5" filterUnits="userSpaceOnUse" color-interpolation-filters="sRGB">
<feFlood flood-opacity="0" result="BackgroundImageFix"/>
<feColorMatrix in="SourceAlpha" type="matrix" values="0 0 0 0 0 0 0 0 0 0 0 0 0 0 0 0 0 0 127 0"/>
<feOffset dy="4"/>
<feGaussianBlur stdDeviation="2"/>
<feColorMatrix type="matrix" values="0 0 0 0 0 0 0 0 0 0 0 0 0 0 0 0 0 0 0.25 0"/>
<feBlend mode="normal" in2="BackgroundImageFix" result="effect1_dropShadow"/>
<feBlend mode="normal" in="SourceGraphic" in2="effect1_dropShadow" result="shape"/>
</filter>
</defs>
</svg>
