<svg xmlns="http://www.w3.org/2000/svg" version="1.1" x="0" y="0" viewBox="0 0 268.7 121.4" xml:space="preserve"><style>.s0{fill:#00B4AB;}</style><path d="M105.3 119.7c-24-5.5-32.6-24.7-30.1-45.2 2.1-17 11.8-27.1 28.1-31.4 9.2-2.5 18.4-2.8 27.7-1.7 8.1 0.9 15.3 4.6 21.4 10 1.1 1 2.1 2 4 3.7 0-6.3 0.3-11.6-0.1-16.8 -0.4-4.2-3.8-6.6-7.3-8.6 -7.8-4.4-16.4-4.7-25-3.9 -9.8 1-19.5 2.8-28.9 8 -4-7-7.9-13.8-11.9-20.9 8.2-5.2 16.7-8.2 25.6-10.2 14.4-3.2 28.7-4 43 0.4 8.7 2.6 16.5 6.8 22.9 13.3 6.1 6.2 9.9 13.6 9.9 22.4 0.1 25.9 0.1 51.8 0.1 77.8 0 0.4-0.2 0.7-0.3 1.5 -8.2 0-16.5 0-25.4 0 0-3.7 0-7.5 0-12.3 -1.7 1.5-2.7 2.2-3.6 3.1 -6.3 6.1-13.8 9.9-22.4 11.9C132.1 120.9 120 122.6 105.3 119.7zM128.8 97.4c2.4-0.1 4.9-0.1 7.3-0.3 5.5-0.6 10.6-2.3 15-5.6 7.4-5.6 7.4-14.8-0.1-20.3 -2.2-1.6-4.8-3-7.4-3.8 -9.5-2.8-19.2-2.9-28.7-0.4 -7.6 2-11 7.1-10.8 14.9 0.2 7.3 4 12.2 11.4 13.9C119.8 96.9 128.8 97.5 128.8 97.4z" fill="#F15F48"/><path d="M36 16.1c1.6-2 3.3-2.9 5.8-2.8 8.2 0 14.1 0 14.1 0l-32 39.5h0l-6.2 7.7 2.2 2.7c0 0 0.1 0.1 0.1 0.1l36 44.5c0 0-5.9 0-14.1 0 -2.5 0-4.2-0.8-5.8-2.8L0 60.6 36 16.1zM232.7 16.1c-1.6-2-3.3-2.9-5.8-2.8 -8.2 0-14.1 0-14.1 0l32 39.5h0l6.2 7.7 -2.2 2.7c0 0-0.1 0.1-0.1 0.1l-36 44.5c0 0 5.9 0 14.1 0 2.5 0 4.2-0.8 5.8-2.8l36-44.4L232.7 16.1z" fill="#00B4AB"/></svg>