<svg xmlns="http://www.w3.org/2000/svg" width="323" height="75" version="1.1" x="0" y="0" viewBox="0 0 323.1 74.6" enable-background="new 0 0 323.1 74.6" xml:space="preserve"><path fill="#fff" d="M54 73H41.3v-6L41 66.7c-4 4.8-10.5 7.9-17.1 7.9C6.6 74.6 0 65.7 0 54.7 0 43 6.6 34.8 23.8 34.8c8.5 0 13.1 3.9 16.1 7l0.3-0.2v-7.2c0-3.9-5.4-7.1-12.3-7.1 -8.2 0-14.6 2-18 4.1L4.1 21.1c6-3.7 14.6-6.2 23.8-6.2C41.6 14.9 54 23 54 34.4V73zM27 46.9c-10.3 0-12.6 3.2-12.6 7.8 0 4.8 2.3 8.1 12.6 8.1 8.1 0 13.1-3.8 13.1-8.1C40.2 50.6 35.1 46.9 27 46.9zM110.3 63.5h-0.2c-4.1 6-10.4 11.1-19.8 11.1C74.6 74.6 62 61.9 62 44.8 62 27.7 74.6 15 90.3 15c9 0 14.8 4.6 18.8 9.8h0.2V0h13.8v73h-12.7V63.5zM92.8 28.2c-9.2 0-16.4 7.5-16.4 16.5 0 9.1 7.2 16.6 16.4 16.6 9.1 0 16.4-7.5 16.4-16.6C109.3 35.7 102 28.2 92.8 28.2zM131.4 28.7V16.6h5.2V3.9h13.8v12.7h9.6v12.1h-9.6v27.6c0 1.9 1.6 3.4 3.3 3.4h6.3V73h-6.3c-10.1 0-17.1-6.4-17.1-16.6V28.7H131.4zM205.3 16.3l-4.4 12.6c-1.3-0.4-2.7-0.7-4.2-0.7 -8 0-14.3 6.5-14.3 14.6V73h-13.8V16.6h12.8v7.8c2.9-5 7.7-9.4 15.3-9.4C199.7 15 202.6 15.5 205.3 16.3zM259.3 73h-12.7v-6l-0.3-0.2c-4 4.8-10.5 7.9-17.1 7.9 -17.2 0-23.8-9-23.8-19.9 0-11.7 6.6-19.8 23.8-19.8 8.5 0 13.1 3.9 16.1 7l0.3-0.2v-7.2c0-3.9-5.4-7.1-12.3-7.1 -8.2 0-14.6 2-18 4.1l-5.8-10.3c6-3.7 14.6-6.2 23.8-6.2 13.7 0 26.1 8.1 26.1 19.6V73zM232.4 46.9c-10.3 0-12.6 3.2-12.6 7.8 0 4.8 2.3 8.1 12.6 8.1 8.1 0 13.1-3.8 13.1-8.1C245.5 50.6 240.5 46.9 232.4 46.9zM269.2 0H283v44.8l22.8-28.1h17.3l-23 28.1 23 28.2h-17.3L283 44.8V73h-13.8V0z"/></svg>